<svg width="24" height="24" viewBox="0 0 24 24" fill="none" xmlns="http://www.w3.org/2000/svg">
<path d="M2.75 7.9V5.83C2.75 4.12 4.12999 2.75 5.82999 2.75H18.16C19.87 2.75 21.24 4.13 21.24 5.83V7.9" stroke="#F7F7F7" stroke-width="1.5" stroke-linecap="round" stroke-linejoin="round"/>
<path d="M6.88281 14.9355C6.58984 14.9355 6.39844 14.748 6.39844 14.4238V11.1309C6.39844 10.8145 6.58984 10.6348 6.86328 10.6348C7.13672 10.6348 7.33203 10.8145 7.33203 11.1309V11.4355H7.35156C7.53125 10.9551 7.96875 10.6387 8.53125 10.6387C9.11719 10.6387 9.53516 10.9395 9.6875 11.4707H9.71094C9.91016 10.959 10.4023 10.6387 11 10.6387C11.8164 10.6387 12.3516 11.1895 12.3516 12.0176V14.4238C12.3516 14.748 12.1562 14.9355 11.8672 14.9355C11.5742 14.9355 11.3789 14.748 11.3789 14.4238V12.2559C11.3789 11.748 11.1133 11.459 10.6367 11.459C10.168 11.459 9.84766 11.8027 9.84766 12.2988V14.4238C9.84766 14.748 9.66406 14.9355 9.375 14.9355C9.08203 14.9355 8.90234 14.748 8.90234 14.4238V12.2051C8.90234 11.7441 8.62109 11.459 8.16797 11.459C7.69922 11.459 7.37109 11.8223 7.37109 12.3223V14.4238C7.37109 14.748 7.17188 14.9355 6.88281 14.9355Z" fill="#F7F7F7"/>
<path d="M13.6172 14.8574C13.3047 14.8574 13.1406 14.6855 13.1406 14.4316C13.1406 14.2363 13.207 14.1191 13.4219 13.916L15.1445 12.209C15.8633 11.498 16.043 11.2129 16.043 10.7832C16.043 10.2793 15.6562 9.91602 15.1133 9.91602C14.6055 9.91602 14.25 10.1738 14.0508 10.6816C13.9492 10.8848 13.832 10.9902 13.6016 10.9902C13.3281 10.9902 13.1641 10.8223 13.1641 10.5723C13.1641 10.498 13.1758 10.4277 13.1953 10.3613C13.3477 9.75195 14.0234 9.10742 15.1211 9.10742C16.25 9.10742 17.0273 9.77539 17.0273 10.7207C17.0273 11.3809 16.7109 11.8262 15.7773 12.7402L14.4844 14.0137V14.0332H16.7344C17 14.0332 17.1641 14.1973 17.1641 14.4473C17.1641 14.6934 17 14.8574 16.7344 14.8574H13.6172Z" fill="#F7F7F7"/>
<path d="M21.2498 16.0801V18.1701C21.2498 19.8801 19.8698 21.2501 18.1698 21.2501H5.83975C4.12975 21.2501 2.75977 19.8701 2.75977 18.1701V16.1001" stroke="#F7F7F7" stroke-width="1.5" stroke-linecap="round" stroke-linejoin="round"/>
</svg>
