<svg width="20" height="21" viewBox="0 0 20 21" fill="none" xmlns="http://www.w3.org/2000/svg">
<path d="M10.1084 18.3912H9.90005C5.70005 18.3912 2.30005 14.9829 2.30005 10.7912V10.5829C2.30005 6.38291 5.70838 2.98291 9.90005 2.98291H10.1084C14.3084 2.98291 17.7084 6.39125 17.7084 10.5829V10.7912C17.7084 14.9829 14.3001 18.3912 10.1084 18.3912Z" stroke="#4A4D4F" stroke-linecap="round" stroke-linejoin="round"/>
<path d="M10.1084 18.3912H9.90005C5.70005 18.3912 2.30005 14.9829 2.30005 10.7912V10.5829C2.30005 6.38291 5.70838 2.98291 9.90005 2.98291H10.1084C14.3084 2.98291 17.7084 6.39125 17.7084 10.5829V10.7912C17.7084 14.9829 14.3001 18.3912 10.1084 18.3912Z" stroke="black" stroke-opacity="0.2" stroke-linecap="round" stroke-linejoin="round"/>
<path d="M7.4248 10.6831H12.5581" stroke="#4A4D4F" stroke-linecap="round" stroke-linejoin="round"/>
<path d="M7.4248 10.6831H12.5581" stroke="black" stroke-opacity="0.2" stroke-linecap="round" stroke-linejoin="round"/>
<path d="M12.5747 10.6833L10.5247 8.625" stroke="#4A4D4F" stroke-linecap="round" stroke-linejoin="round"/>
<path d="M12.5747 10.6833L10.5247 8.625" stroke="black" stroke-opacity="0.2" stroke-linecap="round" stroke-linejoin="round"/>
<path d="M12.5747 10.6831L10.5247 12.7414" stroke="#4A4D4F" stroke-linecap="round" stroke-linejoin="round"/>
<path d="M12.5747 10.6831L10.5247 12.7414" stroke="black" stroke-opacity="0.2" stroke-linecap="round" stroke-linejoin="round"/>
</svg>
