<svg width="118" height="92" viewBox="0 0 118 92" fill="none" xmlns="http://www.w3.org/2000/svg">
<path d="M9.48572 35.3057H4.70608L4.68059 32.3742H8.55528C9.25205 32.3742 9.80861 32.2977 10.225 32.1448C10.6413 31.9833 10.943 31.7497 11.1299 31.4438C11.3254 31.1379 11.4231 30.7555 11.4231 30.2967C11.4231 29.7698 11.3254 29.345 11.1299 29.0221C10.9345 28.6992 10.6243 28.4655 10.1995 28.3211C9.78312 28.1681 9.24355 28.0917 8.58078 28.0917H6.38852V43.1953H1.91477V24.6376H8.58078C9.72789 24.6376 10.7518 24.7438 11.6525 24.9562C12.5532 25.1601 13.3179 25.4745 13.9467 25.8994C14.584 26.3242 15.0683 26.8596 15.3997 27.5054C15.7311 28.1426 15.8968 28.8946 15.8968 29.7613C15.8968 30.5176 15.7354 31.2271 15.4125 31.8899C15.0896 32.5527 14.55 33.0922 13.7938 33.5086C13.046 33.9164 12.0221 34.1289 10.7221 34.1459L9.48572 35.3057ZM9.30728 43.1953H3.6227L5.15218 39.754H9.30728C9.91907 39.754 10.4077 39.6605 10.773 39.4736C11.1469 39.2781 11.4146 39.0232 11.576 38.7088C11.746 38.3859 11.8309 38.0291 11.8309 37.6382C11.8309 37.1623 11.7502 36.7502 11.5888 36.4019C11.4358 36.0535 11.1894 35.7858 10.8495 35.5989C10.5096 35.4034 10.055 35.3057 9.48572 35.3057H5.72574L5.75123 32.3742H10.2505L11.2956 33.5468C12.5362 33.4958 13.5176 33.67 14.2399 34.0694C14.9706 34.4688 15.4932 34.9956 15.8076 35.6499C16.122 36.3041 16.2792 36.9882 16.2792 37.7019C16.2792 38.917 16.0158 39.9324 15.4889 40.7481C14.9706 41.5639 14.1931 42.1757 13.1565 42.5835C12.1198 42.9914 10.8368 43.1953 9.30728 43.1953ZM30.2429 39.754V43.1953H20.862V39.754H30.2429ZM22.4552 24.6376V43.1953H17.9815V24.6376H22.4552ZM39.4651 28.5378L34.9404 43.1953H30.1353L36.9542 24.6376H40.0005L39.4651 28.5378ZM43.2124 43.1953L38.6749 28.5378L38.0886 24.6376H41.1731L48.0303 43.1953H43.2124ZM43.0339 36.2744V39.7285H33.5129V36.2744H43.0339ZM58.884 36.9117H63.345C63.2855 38.2032 62.9371 39.3419 62.2998 40.3275C61.6626 41.3132 60.7788 42.0822 59.6487 42.6345C58.5271 43.1783 57.2016 43.4502 55.6721 43.4502C54.4315 43.4502 53.3226 43.242 52.3454 42.8257C51.3768 42.4093 50.5525 41.8103 49.8728 41.0285C49.2015 40.2468 48.6874 39.2994 48.3305 38.1863C47.9822 37.0731 47.808 35.8198 47.808 34.4263V33.4194C47.808 32.0258 47.9907 30.7725 48.356 29.6594C48.7299 28.5378 49.2567 27.5861 49.9365 26.8043C50.6248 26.0141 51.449 25.4108 52.4092 24.9944C53.3693 24.5781 54.4357 24.3699 55.6083 24.3699C57.2228 24.3699 58.5866 24.6588 59.6997 25.2366C60.8128 25.8144 61.6753 26.6089 62.2871 27.6201C62.8989 28.6227 63.26 29.7656 63.3705 31.0487H58.9095C58.8925 30.3519 58.7735 29.7698 58.5526 29.3025C58.3317 28.8267 57.9833 28.4698 57.5075 28.2319C57.0316 27.9939 56.3986 27.875 55.6083 27.875C55.056 27.875 54.5759 27.9769 54.1681 28.1809C53.7602 28.3848 53.4203 28.7077 53.1484 29.1495C52.8765 29.5914 52.6726 30.165 52.5366 30.8702C52.4092 31.567 52.3454 32.4082 52.3454 33.3939V34.4263C52.3454 35.4119 52.4049 36.2532 52.5239 36.9499C52.6428 37.6467 52.834 38.216 53.0974 38.6578C53.3608 39.0997 53.7007 39.4268 54.1171 39.6393C54.542 39.8432 55.0603 39.9452 55.6721 39.9452C56.3518 39.9452 56.9254 39.8389 57.3927 39.6265C57.8601 39.4056 58.2212 39.0742 58.4761 38.6324C58.731 38.182 58.867 37.6084 58.884 36.9117ZM69.1514 24.6376V43.1953H64.6777V24.6376H69.1514ZM80.2274 24.6376L73.0389 34.0439L68.8328 38.6451L68.017 34.541L70.7064 30.4624L74.7085 24.6376H80.2274ZM74.938 43.1953L70.1456 34.8341L73.6252 32.2722L80.2274 43.1953H74.938ZM6.38852 48.6376V67.1953H1.91477V48.6376H6.38852ZM13.6026 56.3615V59.8028H5.11394V56.3615H13.6026ZM14.3291 48.6376V52.0917H5.11394V48.6376H14.3291ZM15.4069 48.6376H22.7102C24.1377 48.6376 25.3783 48.85 26.4319 49.2749C27.4855 49.6997 28.297 50.3285 28.8663 51.1612C29.4441 51.9939 29.733 53.0221 29.733 54.2457C29.733 55.3078 29.5673 56.1958 29.236 56.9095C28.9046 57.6233 28.4415 58.2138 27.8467 58.6812C27.2604 59.14 26.5764 59.5182 25.7946 59.8156L24.3289 60.644H18.1982L18.1727 57.1899H22.7102C23.2795 57.1899 23.7511 57.088 24.1249 56.884C24.4988 56.6801 24.7792 56.3912 24.9661 56.0173C25.1616 55.635 25.2593 55.1804 25.2593 54.6535C25.2593 54.1182 25.1616 53.6594 24.9661 53.277C24.7707 52.8946 24.4818 52.6015 24.0994 52.3976C23.7256 52.1936 23.2625 52.0917 22.7102 52.0917H19.8806V67.1953H15.4069V48.6376ZM25.5652 67.1953L21.4611 58.9871L26.2025 58.9616L30.3576 67.0041V67.1953H25.5652ZM36.4062 48.6376V67.1953H31.9452V48.6376H36.4062ZM44.8 67.1953H40.6831L40.7086 63.754H44.8C45.6497 63.754 46.3677 63.55 46.954 63.1422C47.5488 62.7343 47.9992 62.1268 48.3051 61.3195C48.6194 60.5038 48.7766 59.5012 48.7766 58.3116V57.5086C48.7766 56.6164 48.6874 55.8346 48.509 55.1634C48.339 54.4836 48.0841 53.9185 47.7442 53.4682C47.4044 53.0093 46.9795 52.6652 46.4697 52.4358C45.9683 52.2064 45.3905 52.0917 44.7363 52.0917H40.6066V48.6376H44.7363C45.9938 48.6376 47.1452 48.8542 48.1903 49.2876C49.244 49.7125 50.1532 50.3242 50.9179 51.123C51.6912 51.9132 52.286 52.8521 52.7023 53.9398C53.1272 55.0189 53.3396 56.217 53.3396 57.5341V58.3116C53.3396 59.6201 53.1272 60.8182 52.7023 61.9058C52.286 62.9935 51.6954 63.9324 50.9307 64.7226C50.1659 65.5129 49.261 66.1247 48.2158 66.558C47.1792 66.9829 46.0406 67.1953 44.8 67.1953ZM43.245 48.6376V67.1953H38.7713V48.6376H43.245ZM62.4727 52.5378L57.9479 67.1953H53.1428L59.9618 48.6376H63.008L62.4727 52.5378ZM66.2199 67.1953L61.6824 52.5378L61.0961 48.6376H64.1806L71.0378 67.1953H66.2199ZM66.0415 60.2744V63.7285H56.5204V60.2744H66.0415ZM73.0715 48.6376L76.4873 56.6929L79.9159 48.6376H84.7338L78.7688 60.5293V67.1953H74.2186V60.5293L68.2409 48.6376H73.0715Z" fill="#F7F7F7"/>
<path d="M2.98205 9.54001L1.94728 9.27433L2.45767 4.20535H7.68047V5.40093H3.55537L3.24774 8.16964C3.43418 8.06243 3.66957 7.96222 3.9539 7.869C4.24289 7.77577 4.57383 7.72916 4.94672 7.72916C5.41749 7.72916 5.83932 7.81073 6.21221 7.97387C6.5851 8.13235 6.90206 8.36075 7.16308 8.65906C7.42877 8.95737 7.63153 9.31628 7.77136 9.73578C7.91119 10.1553 7.98111 10.6237 7.98111 11.1411C7.98111 11.6305 7.91352 12.0803 7.77835 12.4905C7.64784 12.9007 7.44974 13.2596 7.18406 13.5672C6.91837 13.8702 6.58277 14.1056 6.17725 14.2734C5.7764 14.4412 5.30329 14.5251 4.75794 14.5251C4.34776 14.5251 3.95856 14.4692 3.59033 14.3573C3.22676 14.2408 2.90048 14.066 2.61149 13.8329C2.32716 13.5952 2.09411 13.3015 1.91232 12.952C1.7352 12.5977 1.62333 12.1829 1.57672 11.7074H2.80726C2.86319 12.0896 2.97506 12.4113 3.14286 12.6723C3.31066 12.9333 3.52973 13.1314 3.80008 13.2666C4.07509 13.3971 4.39437 13.4624 4.75794 13.4624C5.06558 13.4624 5.33825 13.4087 5.57597 13.3015C5.81369 13.1943 6.01412 13.0405 6.17725 12.8401C6.34039 12.6397 6.46391 12.3973 6.54781 12.113C6.63638 11.8286 6.68066 11.5093 6.68066 11.1551C6.68066 10.8335 6.63638 10.5352 6.54781 10.2602C6.45925 9.98515 6.32641 9.7451 6.14929 9.54001C5.97683 9.33492 5.76474 9.17644 5.51304 9.06458C5.26134 8.94805 4.97235 8.88978 4.64607 8.88978C4.21259 8.88978 3.88398 8.94805 3.66025 9.06458C3.44117 9.1811 3.21511 9.33958 2.98205 9.54001ZM15.6476 8.48427V10.0364C15.6476 10.8708 15.5731 11.5746 15.4239 12.1479C15.2748 12.7212 15.0603 13.1827 14.7807 13.5323C14.501 13.8819 14.1631 14.1359 13.7669 14.2944C13.3753 14.4482 12.9325 14.5251 12.4385 14.5251C12.0469 14.5251 11.6857 14.4761 11.3547 14.3783C11.0238 14.2804 10.7255 14.1242 10.4598 13.9098C10.1988 13.6907 9.97505 13.4064 9.7886 13.0568C9.60216 12.7072 9.45999 12.2831 9.36211 11.7843C9.26423 11.2856 9.21528 10.703 9.21528 10.0364V8.48427C9.21528 7.64992 9.28986 6.95075 9.43902 6.38676C9.59284 5.82276 9.80958 5.37063 10.0892 5.03037C10.3689 4.68545 10.7045 4.43841 11.0961 4.28925C11.4922 4.14009 11.9351 4.06552 12.4245 4.06552C12.8207 4.06552 13.1842 4.11446 13.5152 4.21234C13.8508 4.30556 14.1491 4.45705 14.4101 4.6668C14.6711 4.87189 14.8925 5.1469 15.0743 5.49182C15.2608 5.83208 15.4029 6.24925 15.5008 6.74333C15.5987 7.23741 15.6476 7.81772 15.6476 8.48427ZM14.3472 10.2462V8.26752C14.3472 7.81073 14.3192 7.40988 14.2633 7.06495C14.212 6.71537 14.1351 6.41705 14.0326 6.17001C13.93 5.92298 13.7995 5.72255 13.641 5.56873C13.4872 5.41491 13.3078 5.30304 13.1027 5.23313C12.9022 5.15855 12.6762 5.12126 12.4245 5.12126C12.1168 5.12126 11.8442 5.17953 11.6064 5.29605C11.3687 5.40792 11.1683 5.58737 11.0052 5.83441C10.8467 6.08145 10.7255 6.4054 10.6416 6.80626C10.5577 7.20712 10.5157 7.6942 10.5157 8.26752V10.2462C10.5157 10.703 10.5414 11.1061 10.5926 11.4557C10.6486 11.8053 10.7302 12.1083 10.8374 12.3647C10.9446 12.6164 11.0751 12.8238 11.2289 12.9869C11.3827 13.1501 11.5598 13.2712 11.7603 13.3505C11.9654 13.4251 12.1914 13.4624 12.4385 13.4624C12.7554 13.4624 13.0327 13.4018 13.2705 13.2806C13.5082 13.1594 13.7063 12.9706 13.8648 12.7142C14.0279 12.4532 14.1491 12.1199 14.2283 11.7144C14.3076 11.3042 14.3472 10.8148 14.3472 10.2462ZM17.0566 6.70138V6.16302C17.0566 5.77615 17.1405 5.42423 17.3083 5.10728C17.4761 4.79032 17.7162 4.53629 18.0285 4.34518C18.3407 4.15408 18.7113 4.05852 19.1401 4.05852C19.5783 4.05852 19.9512 4.15408 20.2588 4.34518C20.5711 4.53629 20.8111 4.79032 20.9789 5.10728C21.1467 5.42423 21.2306 5.77615 21.2306 6.16302V6.70138C21.2306 7.07893 21.1467 7.42619 20.9789 7.74315C20.8158 8.0601 20.5781 8.31413 20.2658 8.50524C19.9582 8.69635 19.5876 8.7919 19.1541 8.7919C18.7206 8.7919 18.3454 8.69635 18.0285 8.50524C17.7162 8.31413 17.4761 8.0601 17.3083 7.74315C17.1405 7.42619 17.0566 7.07893 17.0566 6.70138ZM18.0285 6.16302V6.70138C18.0285 6.9158 18.0681 7.11855 18.1473 7.30966C18.2312 7.50077 18.3571 7.65691 18.5249 7.7781C18.6927 7.89463 18.9024 7.9529 19.1541 7.9529C19.4058 7.9529 19.6132 7.89463 19.7764 7.7781C19.9395 7.65691 20.0607 7.50077 20.1399 7.30966C20.2192 7.11855 20.2588 6.9158 20.2588 6.70138V6.16302C20.2588 5.94395 20.2169 5.73886 20.133 5.54775C20.0537 5.35199 19.9302 5.19584 19.7624 5.07931C19.5993 4.95812 19.3918 4.89753 19.1401 4.89753C18.8931 4.89753 18.6857 4.95812 18.5179 5.07931C18.3547 5.19584 18.2312 5.35199 18.1473 5.54775C18.0681 5.73886 18.0285 5.94395 18.0285 6.16302ZM22.0137 12.4346V11.8892C22.0137 11.507 22.0976 11.1574 22.2654 10.8405C22.4332 10.5235 22.6733 10.2695 22.9856 10.0784C23.2979 9.88726 23.6684 9.79171 24.0972 9.79171C24.5354 9.79171 24.9083 9.88726 25.2159 10.0784C25.5282 10.2695 25.7683 10.5235 25.9361 10.8405C26.1039 11.1574 26.1878 11.507 26.1878 11.8892V12.4346C26.1878 12.8168 26.1039 13.1664 25.9361 13.4833C25.7729 13.8003 25.5352 14.0543 25.2229 14.2454C24.9153 14.4365 24.5447 14.5321 24.1112 14.5321C23.6777 14.5321 23.3049 14.4365 22.9926 14.2454C22.6803 14.0543 22.4379 13.8003 22.2654 13.4833C22.0976 13.1664 22.0137 12.8168 22.0137 12.4346ZM22.9856 11.8892V12.4346C22.9856 12.649 23.0252 12.8541 23.1044 13.0498C23.1883 13.2409 23.3142 13.3971 23.482 13.5183C23.6498 13.6348 23.8595 13.6931 24.1112 13.6931C24.3629 13.6931 24.5703 13.6348 24.7335 13.5183C24.9013 13.3971 25.0248 13.2409 25.104 13.0498C25.1833 12.8587 25.2229 12.6536 25.2229 12.4346V11.8892C25.2229 11.6701 25.181 11.4651 25.0971 11.274C25.0178 11.0828 24.8943 10.929 24.7265 10.8125C24.5634 10.6913 24.3536 10.6307 24.0972 10.6307C23.8502 10.6307 23.6428 10.6913 23.475 10.8125C23.3118 10.929 23.1883 11.0828 23.1044 11.274C23.0252 11.4651 22.9856 11.6701 22.9856 11.8892ZM24.4189 5.65263L19.4478 13.6092L18.7206 13.1477L23.6917 5.19118L24.4189 5.65263ZM39.0947 8.97368V9.61692C39.0947 10.3813 38.9992 11.0665 38.808 11.6725C38.6169 12.2784 38.3419 12.7935 37.983 13.2176C37.6241 13.6418 37.193 13.9658 36.6896 14.1895C36.1908 14.4132 35.6315 14.5251 35.0116 14.5251C34.4103 14.5251 33.8579 14.4132 33.3545 14.1895C32.8558 13.9658 32.4223 13.6418 32.0541 13.2176C31.6905 12.7935 31.4085 12.2784 31.2081 11.6725C31.0076 11.0665 30.9074 10.3813 30.9074 9.61692V8.97368C30.9074 8.20926 31.0053 7.5264 31.2011 6.92512C31.4015 6.31917 31.6835 5.80412 32.0471 5.37995C32.4106 4.95113 32.8418 4.62485 33.3405 4.40112C33.8439 4.17738 34.3963 4.06552 34.9976 4.06552C35.6175 4.06552 36.1768 4.17738 36.6756 4.40112C37.179 4.62485 37.6101 4.95113 37.969 5.37995C38.3326 5.80412 38.6099 6.31917 38.8011 6.92512C38.9968 7.5264 39.0947 8.20926 39.0947 8.97368ZM37.7593 9.61692V8.9597C37.7593 8.35375 37.6964 7.81772 37.5705 7.35161C37.4493 6.8855 37.2699 6.49396 37.0322 6.17701C36.7944 5.86005 36.5031 5.62 36.1582 5.45686C35.8179 5.29372 35.4311 5.21215 34.9976 5.21215C34.5781 5.21215 34.1982 5.29372 33.8579 5.45686C33.5223 5.62 33.2333 5.86005 32.991 6.17701C32.7532 6.49396 32.5691 6.8855 32.4386 7.35161C32.3081 7.81772 32.2428 8.35375 32.2428 8.9597V9.61692C32.2428 10.2275 32.3081 10.7682 32.4386 11.239C32.5691 11.7051 32.7556 12.099 32.9979 12.4206C33.245 12.7375 33.5363 12.9776 33.8719 13.1407C34.2122 13.3039 34.5921 13.3854 35.0116 13.3854C35.4497 13.3854 35.8389 13.3039 36.1792 13.1407C36.5194 12.9776 36.8061 12.7375 37.0391 12.4206C37.2769 12.099 37.4563 11.7051 37.5775 11.239C37.6987 10.7682 37.7593 10.2275 37.7593 9.61692ZM42.3215 4.20535V14.3853H40.9721V4.20535H42.3215ZM46.5864 8.78491V9.8896H42.0279V8.78491H46.5864ZM47.2786 4.20535V5.31004H42.0279V4.20535H47.2786ZM50.0929 4.20535V14.3853H48.7435V4.20535H50.0929ZM54.3578 8.78491V9.8896H49.7993V8.78491H54.3578ZM55.05 4.20535V5.31004H49.7993V4.20535H55.05Z" fill="#F7F7F7"/>
<path d="M6.43667 85.4617H7.5243C7.46765 85.9828 7.31848 86.4492 7.07678 86.8609C6.83509 87.2725 6.49331 87.5992 6.05146 87.8409C5.60961 88.0788 5.05824 88.1978 4.39735 88.1978C3.91396 88.1978 3.474 88.1071 3.07746 87.9259C2.68471 87.7446 2.34671 87.4878 2.06347 87.1555C1.78024 86.8193 1.5612 86.4171 1.40636 85.9489C1.2553 85.4768 1.17977 84.9519 1.17977 84.3741V83.5527C1.17977 82.9749 1.2553 82.4518 1.40636 81.9835C1.5612 81.5115 1.78212 81.1074 2.06914 80.7713C2.35993 80.4352 2.70926 80.1765 3.11712 79.9952C3.52498 79.8139 3.98383 79.7233 4.49365 79.7233C5.11678 79.7233 5.6436 79.8404 6.07412 80.0745C6.50464 80.3086 6.83886 80.6334 7.07678 81.0488C7.31848 81.4605 7.46765 81.9382 7.5243 82.482H6.43667C6.38379 82.0968 6.28561 81.7664 6.1421 81.4907C5.99859 81.2112 5.79466 80.996 5.5303 80.8449C5.26595 80.6939 4.9204 80.6183 4.49365 80.6183C4.12733 80.6183 3.80444 80.6882 3.52498 80.8279C3.2493 80.9676 3.01704 81.1659 2.82822 81.4227C2.64317 81.6795 2.50344 81.9873 2.40902 82.3461C2.31461 82.7048 2.2674 83.1033 2.2674 83.5413V84.3741C2.2674 84.7781 2.30895 85.1577 2.39203 85.5127C2.47889 85.8677 2.60918 86.1792 2.7829 86.4474C2.95662 86.7155 3.17754 86.927 3.44567 87.0818C3.71381 87.2329 4.03103 87.3084 4.39735 87.3084C4.86186 87.3084 5.23196 87.2348 5.50765 87.0875C5.78333 86.9402 5.99104 86.7287 6.13077 86.453C6.27428 86.1773 6.37624 85.8469 6.43667 85.4617ZM15.2483 83.7V84.2211C15.2483 84.8405 15.1709 85.3956 15.0161 85.8865C14.8612 86.3775 14.6384 86.7948 14.3476 87.1385C14.0568 87.4821 13.7075 87.7446 13.2996 87.9259C12.8955 88.1071 12.4424 88.1978 11.9401 88.1978C11.4529 88.1978 11.0054 88.1071 10.5975 87.9259C10.1935 87.7446 9.84224 87.4821 9.5439 87.1385C9.24933 86.7948 9.02085 86.3775 8.85846 85.8865C8.69607 85.3956 8.61488 84.8405 8.61488 84.2211V83.7C8.61488 83.0806 8.69418 82.5273 8.8528 82.0402C9.01519 81.5492 9.24367 81.1319 9.53823 80.7883C9.8328 80.4408 10.1821 80.1765 10.5862 79.9952C10.9941 79.8139 11.4416 79.7233 11.9288 79.7233C12.431 79.7233 12.8842 79.8139 13.2883 79.9952C13.6962 80.1765 14.0455 80.4408 14.3363 80.7883C14.6308 81.1319 14.8556 81.5492 15.0104 82.0402C15.169 82.5273 15.2483 83.0806 15.2483 83.7ZM14.1663 84.2211V83.6886C14.1663 83.1977 14.1154 82.7634 14.0134 82.3857C13.9152 82.0081 13.7698 81.6909 13.5772 81.434C13.3846 81.1772 13.1486 80.9828 12.8691 80.8506C12.5934 80.7184 12.28 80.6523 11.9288 80.6523C11.5889 80.6523 11.2811 80.7184 11.0054 80.8506C10.7335 80.9828 10.4994 81.1772 10.303 81.434C10.1104 81.6909 9.9612 82.0081 9.85546 82.3857C9.74972 82.7634 9.69685 83.1977 9.69685 83.6886V84.2211C9.69685 84.7158 9.74972 85.1539 9.85546 85.5353C9.9612 85.913 10.1123 86.2321 10.3086 86.4927C10.5088 86.7495 10.7448 86.944 11.0167 87.0761C11.2924 87.2083 11.6002 87.2744 11.9401 87.2744C12.2951 87.2744 12.6104 87.2083 12.8861 87.0761C13.1618 86.944 13.394 86.7495 13.5829 86.4927C13.7755 86.2321 13.9209 85.913 14.0191 85.5353C14.1172 85.1539 14.1663 84.7158 14.1663 84.2211ZM21.7714 87.1951V88.0845H17.6474V87.1951H21.7714ZM17.8627 79.8366V88.0845H16.7694V79.8366H17.8627ZM27.9093 87.1951V88.0845H23.7853V87.1951H27.9093ZM24.0006 79.8366V88.0845H22.9073V79.8366H24.0006ZM34.2851 87.1951V88.0845H29.9175V87.1951H34.2851ZM30.1385 79.8366V88.0845H29.0452V79.8366H30.1385ZM33.7073 83.3827V84.2721H29.9175V83.3827H33.7073ZM34.2284 79.8366V80.7316H29.9175V79.8366H34.2284ZM40.5022 85.4617H41.5899C41.5332 85.9828 41.3841 86.4492 41.1424 86.8609C40.9007 87.2725 40.5589 87.5992 40.117 87.8409C39.6752 88.0788 39.1238 88.1978 38.4629 88.1978C37.9795 88.1978 37.5396 88.1071 37.143 87.9259C36.7503 87.7446 36.4123 87.4878 36.1291 87.1555C35.8458 86.8193 35.6268 86.4171 35.4719 85.9489C35.3209 85.4768 35.2454 84.9519 35.2454 84.3741V83.5527C35.2454 82.9749 35.3209 82.4518 35.4719 81.9835C35.6268 81.5115 35.8477 81.1074 36.1347 80.7713C36.4255 80.4352 36.7748 80.1765 37.1827 79.9952C37.5906 79.8139 38.0494 79.7233 38.5592 79.7233C39.1824 79.7233 39.7092 79.8404 40.1397 80.0745C40.5702 80.3086 40.9044 80.6334 41.1424 81.0488C41.3841 81.4605 41.5332 81.9382 41.5899 82.482H40.5022C40.4494 82.0968 40.3512 81.7664 40.2077 81.4907C40.0642 81.2112 39.8602 80.996 39.5959 80.8449C39.3315 80.6939 38.986 80.6183 38.5592 80.6183C38.1929 80.6183 37.87 80.6882 37.5906 80.8279C37.3149 80.9676 37.0826 81.1659 36.8938 81.4227C36.7087 81.6795 36.569 81.9873 36.4746 82.3461C36.3802 82.7048 36.333 83.1033 36.333 83.5413V84.3741C36.333 84.7781 36.3745 85.1577 36.4576 85.5127C36.5445 85.8677 36.6748 86.1792 36.8485 86.4474C37.0222 86.7155 37.2431 86.927 37.5113 87.0818C37.7794 87.2329 38.0966 87.3084 38.4629 87.3084C38.9274 87.3084 39.2975 87.2348 39.5732 87.0875C39.8489 86.9402 40.0566 86.7287 40.1964 86.453C40.3399 86.1773 40.4418 85.8469 40.5022 85.4617ZM45.8414 79.8366V88.0845H44.7651V79.8366H45.8414ZM48.4925 79.8366V80.7316H42.1196V79.8366H48.4925ZM50.7727 79.8366V88.0845H49.6794V79.8366H50.7727ZM58.9952 83.7V84.2211C58.9952 84.8405 58.9178 85.3956 58.7629 85.8865C58.6081 86.3775 58.3853 86.7948 58.0945 87.1385C57.8037 87.4821 57.4544 87.7446 57.0465 87.9259C56.6424 88.1071 56.1892 88.1978 55.687 88.1978C55.1998 88.1978 54.7523 88.1071 54.3444 87.9259C53.9403 87.7446 53.5891 87.4821 53.2908 87.1385C52.9962 86.7948 52.7677 86.3775 52.6053 85.8865C52.443 85.3956 52.3618 84.8405 52.3618 84.2211V83.7C52.3618 83.0806 52.4411 82.5273 52.5997 82.0402C52.7621 81.5492 52.9905 81.1319 53.2851 80.7883C53.5797 80.4408 53.929 80.1765 54.3331 79.9952C54.741 79.8139 55.1885 79.7233 55.6756 79.7233C56.1779 79.7233 56.6311 79.8139 57.0352 79.9952C57.443 80.1765 57.7924 80.4408 58.0832 80.7883C58.3777 81.1319 58.6024 81.5492 58.7573 82.0402C58.9159 82.5273 58.9952 83.0806 58.9952 83.7ZM57.9132 84.2211V83.6886C57.9132 83.1977 57.8622 82.7634 57.7603 82.3857C57.6621 82.0081 57.5167 81.6909 57.3241 81.434C57.1315 81.1772 56.8955 80.9828 56.616 80.8506C56.3403 80.7184 56.0269 80.6523 55.6756 80.6523C55.3358 80.6523 55.028 80.7184 54.7523 80.8506C54.4804 80.9828 54.2462 81.1772 54.0499 81.434C53.8573 81.6909 53.7081 82.0081 53.6023 82.3857C53.4966 82.7634 53.4437 83.1977 53.4437 83.6886V84.2211C53.4437 84.7158 53.4966 85.1539 53.6023 85.5353C53.7081 85.913 53.8591 86.2321 54.0555 86.4927C54.2557 86.7495 54.4917 86.944 54.7636 87.0761C55.0393 87.2083 55.3471 87.2744 55.687 87.2744C56.042 87.2744 56.3573 87.2083 56.633 87.0761C56.9087 86.944 57.1409 86.7495 57.3298 86.4927C57.5224 86.2321 57.6677 85.913 57.7659 85.5353C57.8641 85.1539 57.9132 84.7158 57.9132 84.2211ZM66.8608 79.8366V88.0845H65.7619L61.6096 81.723V88.0845H60.5163V79.8366H61.6096L65.7788 86.2151V79.8366H66.8608Z" fill="#F7F7F7"/>
</svg>
