<svg width="20" height="21" viewBox="0 0 20 21" fill="none" xmlns="http://www.w3.org/2000/svg">
<path d="M5.71655 4.89147V3.1748" stroke="#7C8083" stroke-width="1.25" stroke-linecap="round" stroke-linejoin="round"/>
<path d="M14.2832 4.89147V3.1748" stroke="#7C8083" stroke-width="1.25" stroke-linecap="round" stroke-linejoin="round"/>
<path d="M15.0415 4.0332H4.95817C3.48317 4.0332 2.2915 5.22487 2.2915 6.69987V15.9332C2.2915 17.4082 3.48317 18.5999 4.95817 18.5999H15.0498C16.5248 18.5999 17.7165 17.4082 17.7165 15.9332V6.69987C17.7082 5.22487 16.5165 4.0332 15.0415 4.0332Z" stroke="#7C8083" stroke-width="1.25" stroke-linecap="round" stroke-linejoin="round"/>
<path d="M2.2915 7.4668H17.7082" stroke="#7C8083" stroke-width="1.25" stroke-linecap="round" stroke-linejoin="round"/>
<path d="M14.9998 10.883C15.4601 10.883 15.8332 10.5099 15.8332 10.0496C15.8332 9.5894 15.4601 9.21631 14.9998 9.21631C14.5396 9.21631 14.1665 9.5894 14.1665 10.0496C14.1665 10.5099 14.5396 10.883 14.9998 10.883Z" fill="#7C8083"/>
<path d="M11.6663 10.883C12.1266 10.883 12.4997 10.5099 12.4997 10.0496C12.4997 9.5894 12.1266 9.21631 11.6663 9.21631C11.2061 9.21631 10.833 9.5894 10.833 10.0496C10.833 10.5099 11.2061 10.883 11.6663 10.883Z" fill="#7C8083"/>
<path d="M8.33333 10.883C8.79357 10.883 9.16667 10.5099 9.16667 10.0496C9.16667 9.5894 8.79357 9.21631 8.33333 9.21631C7.8731 9.21631 7.5 9.5894 7.5 10.0496C7.5 10.5099 7.8731 10.883 8.33333 10.883Z" fill="#7C8083"/>
<path d="M4.99984 10.883C5.46007 10.883 5.83317 10.5099 5.83317 10.0496C5.83317 9.5894 5.46007 9.21631 4.99984 9.21631C4.5396 9.21631 4.1665 9.5894 4.1665 10.0496C4.1665 10.5099 4.5396 10.883 4.99984 10.883Z" fill="#7C8083"/>
<path d="M14.9998 13.7917C15.4601 13.7917 15.8332 13.4186 15.8332 12.9583C15.8332 12.4981 15.4601 12.125 14.9998 12.125C14.5396 12.125 14.1665 12.4981 14.1665 12.9583C14.1665 13.4186 14.5396 13.7917 14.9998 13.7917Z" fill="#7C8083"/>
<path d="M11.6663 13.7917C12.1266 13.7917 12.4997 13.4186 12.4997 12.9583C12.4997 12.4981 12.1266 12.125 11.6663 12.125C11.2061 12.125 10.833 12.4981 10.833 12.9583C10.833 13.4186 11.2061 13.7917 11.6663 13.7917Z" fill="#7C8083"/>
<path d="M8.33333 13.7917C8.79357 13.7917 9.16667 13.4186 9.16667 12.9583C9.16667 12.4981 8.79357 12.125 8.33333 12.125C7.8731 12.125 7.5 12.4981 7.5 12.9583C7.5 13.4186 7.8731 13.7917 8.33333 13.7917Z" fill="#7C8083"/>
<path d="M4.99984 13.7917C5.46007 13.7917 5.83317 13.4186 5.83317 12.9583C5.83317 12.4981 5.46007 12.125 4.99984 12.125C4.5396 12.125 4.1665 12.4981 4.1665 12.9583C4.1665 13.4186 4.5396 13.7917 4.99984 13.7917Z" fill="#7C8083"/>
<path d="M11.6663 16.6916C12.1266 16.6916 12.4997 16.3185 12.4997 15.8582C12.4997 15.398 12.1266 15.0249 11.6663 15.0249C11.2061 15.0249 10.833 15.398 10.833 15.8582C10.833 16.3185 11.2061 16.6916 11.6663 16.6916Z" fill="#7C8083"/>
<path d="M8.33333 16.6916C8.79357 16.6916 9.16667 16.3185 9.16667 15.8582C9.16667 15.398 8.79357 15.0249 8.33333 15.0249C7.8731 15.0249 7.5 15.398 7.5 15.8582C7.5 16.3185 7.8731 16.6916 8.33333 16.6916Z" fill="#7C8083"/>
<path d="M4.99984 16.6916C5.46007 16.6916 5.83317 16.3185 5.83317 15.8582C5.83317 15.398 5.46007 15.0249 4.99984 15.0249C4.5396 15.0249 4.1665 15.398 4.1665 15.8582C4.1665 16.3185 4.5396 16.6916 4.99984 16.6916Z" fill="#7C8083"/>
</svg>
