<svg width="476" height="84" viewBox="0 0 476 84" fill="none" xmlns="http://www.w3.org/2000/svg">
<path d="M6.6875 31.5312L10.0371 20.2812H13.2988L8.34766 34.5H6.19922L6.6875 31.5312ZM3.60156 20.2812L6.94141 31.5312L7.44922 34.5H5.28125L0.359375 20.2812H3.60156ZM20.666 22.7129L16.7988 34.5H13.6836L18.9668 20.2812H20.9492L20.666 22.7129ZM23.8789 34.5L20.002 22.7129L19.6895 20.2812H21.6914L27.0039 34.5H23.8789ZM23.7031 29.207V31.502H16.1934V29.207H23.7031ZM21.7598 16.5898H23.7617C23.7617 17.1497 23.6217 17.6478 23.3418 18.084C23.0684 18.5137 22.6777 18.8522 22.1699 19.0996C21.6621 19.3405 21.0632 19.4609 20.373 19.4609C19.3249 19.4609 18.4948 19.194 17.8828 18.6602C17.2773 18.1263 16.9746 17.4362 16.9746 16.5898H18.9668C18.9668 16.9284 19.071 17.2311 19.2793 17.498C19.4941 17.765 19.8587 17.8984 20.373 17.8984C20.8809 17.8984 21.2389 17.765 21.4473 17.498C21.6556 17.2311 21.7598 16.9284 21.7598 16.5898ZM40.8945 20.2812V34.5H37.9648L32.252 24.9688V34.5H29.3223V20.2812H32.252L37.9746 29.8223V20.2812H40.8945ZM55.9609 29.4316H52.3379V27.1465H55.9609C56.5208 27.1465 56.9766 27.0553 57.3281 26.873C57.6797 26.6842 57.9368 26.4238 58.0996 26.0918C58.2624 25.7598 58.3438 25.3854 58.3438 24.9688C58.3438 24.5456 58.2624 24.1517 58.0996 23.7871C57.9368 23.4225 57.6797 23.1296 57.3281 22.9082C56.9766 22.6868 56.5208 22.5762 55.9609 22.5762H53.3535V34.5H50.4238V20.2812H55.9609C57.0742 20.2812 58.028 20.4831 58.8223 20.8867C59.623 21.2839 60.235 21.834 60.6582 22.5371C61.0814 23.2402 61.293 24.0443 61.293 24.9492C61.293 25.8672 61.0814 26.6615 60.6582 27.332C60.235 28.0026 59.623 28.5202 58.8223 28.8848C58.028 29.2493 57.0742 29.4316 55.9609 29.4316ZM73.7969 26.0723V28.3574H66.375V26.0723H73.7969ZM67.2441 20.2812V34.5H64.3145V20.2812H67.2441ZM75.8867 20.2812V34.5H72.9668V20.2812H75.8867ZM91.1152 27.0586V27.7324C91.1152 28.8132 90.9688 29.7832 90.6758 30.6426C90.3828 31.502 89.9694 32.2344 89.4355 32.8398C88.9017 33.4388 88.2637 33.8978 87.5215 34.2168C86.7858 34.5358 85.9688 34.6953 85.0703 34.6953C84.1784 34.6953 83.3613 34.5358 82.6191 34.2168C81.8835 33.8978 81.2454 33.4388 80.7051 32.8398C80.1647 32.2344 79.7448 31.502 79.4453 30.6426C79.1523 29.7832 79.0059 28.8132 79.0059 27.7324V27.0586C79.0059 25.9714 79.1523 25.0013 79.4453 24.1484C79.7383 23.2891 80.1517 22.5566 80.6855 21.9512C81.2259 21.3457 81.8639 20.8835 82.5996 20.5645C83.3418 20.2454 84.1589 20.0859 85.0508 20.0859C85.9492 20.0859 86.7663 20.2454 87.502 20.5645C88.2441 20.8835 88.8822 21.3457 89.416 21.9512C89.9564 22.5566 90.373 23.2891 90.666 24.1484C90.9655 25.0013 91.1152 25.9714 91.1152 27.0586ZM88.1562 27.7324V27.0391C88.1562 26.2839 88.0879 25.6198 87.9512 25.0469C87.8145 24.474 87.6126 23.9922 87.3457 23.6016C87.0788 23.2109 86.7533 22.918 86.3691 22.7227C85.985 22.5208 85.5456 22.4199 85.0508 22.4199C84.556 22.4199 84.1165 22.5208 83.7324 22.7227C83.3548 22.918 83.0326 23.2109 82.7656 23.6016C82.5052 23.9922 82.3066 24.474 82.1699 25.0469C82.0332 25.6198 81.9648 26.2839 81.9648 27.0391V27.7324C81.9648 28.4811 82.0332 29.1452 82.1699 29.7246C82.3066 30.2975 82.5085 30.7826 82.7754 31.1797C83.0423 31.5703 83.3678 31.8665 83.752 32.0684C84.1361 32.2702 84.5755 32.3711 85.0703 32.3711C85.5651 32.3711 86.0046 32.2702 86.3887 32.0684C86.7728 31.8665 87.0951 31.5703 87.3555 31.1797C87.6159 30.7826 87.8145 30.2975 87.9512 29.7246C88.0879 29.1452 88.1562 28.4811 88.1562 27.7324ZM84.5137 16.4629L86.4375 19.4707H84.1328L81.457 16.4629H84.5137ZM105.797 20.2812V34.5H102.867L97.1543 24.9688V34.5H94.2246V20.2812H97.1543L102.877 29.8223V20.2812H105.797ZM120.615 27.0684V32.7031C120.394 32.9701 120.052 33.2598 119.59 33.5723C119.128 33.8783 118.532 34.1419 117.803 34.3633C117.074 34.5846 116.191 34.6953 115.156 34.6953C114.238 34.6953 113.402 34.5456 112.646 34.2461C111.891 33.9401 111.24 33.4941 110.693 32.9082C110.153 32.3223 109.736 31.6061 109.443 30.7598C109.15 29.9069 109.004 28.9336 109.004 27.8398V26.9512C109.004 25.8574 109.144 24.8841 109.424 24.0312C109.71 23.1784 110.117 22.459 110.645 21.873C111.172 21.2871 111.8 20.8411 112.529 20.5352C113.258 20.2292 114.069 20.0762 114.961 20.0762C116.198 20.0762 117.214 20.278 118.008 20.6816C118.802 21.0788 119.408 21.6322 119.824 22.3418C120.247 23.0449 120.508 23.8522 120.605 24.7637H117.764C117.692 24.2819 117.555 23.862 117.354 23.5039C117.152 23.1458 116.862 22.8659 116.484 22.6641C116.113 22.4622 115.632 22.3613 115.039 22.3613C114.551 22.3613 114.115 22.4622 113.73 22.6641C113.353 22.8594 113.034 23.1491 112.773 23.5332C112.513 23.9173 112.314 24.3926 112.178 24.959C112.041 25.5254 111.973 26.1829 111.973 26.9316V27.8398C111.973 28.582 112.044 29.2396 112.188 29.8125C112.331 30.3789 112.542 30.8574 112.822 31.248C113.109 31.6322 113.46 31.9219 113.877 32.1172C114.294 32.3125 114.779 32.4102 115.332 32.4102C115.794 32.4102 116.178 32.3711 116.484 32.293C116.797 32.2148 117.048 32.1204 117.236 32.0098C117.432 31.8926 117.581 31.7819 117.686 31.6777V29.1582H115.01V27.0684H120.615Z" fill="url(#paint0_linear_4788_5814)"/>
<path d="M6.14062 59.1406C6.11458 59.2292 6.08073 59.3021 6.03906 59.3594C5.9974 59.4115 5.92969 59.4531 5.83594 59.4844C5.74219 59.5104 5.61458 59.526 5.45312 59.5312C5.29167 59.5417 5.08073 59.5469 4.82031 59.5469C4.61198 59.5469 4.43229 59.5443 4.28125 59.5391C4.13542 59.5391 4.01042 59.5339 3.90625 59.5234C3.80208 59.513 3.71615 59.4974 3.64844 59.4766C3.58594 59.4557 3.53125 59.4297 3.48438 59.3984C3.44271 59.3672 3.40885 59.3307 3.38281 59.2891C3.36198 59.2422 3.34115 59.1849 3.32031 59.1172L0.3125 50.1562C0.25 49.9688 0.210938 49.8203 0.195312 49.7109C0.184896 49.6016 0.210938 49.5208 0.273438 49.4688C0.341146 49.4115 0.453125 49.3776 0.609375 49.3672C0.765625 49.3516 0.984375 49.3438 1.26562 49.3438C1.50521 49.3438 1.69271 49.349 1.82812 49.3594C1.96354 49.3698 2.06771 49.388 2.14062 49.4141C2.21354 49.4401 2.26302 49.4792 2.28906 49.5312C2.32031 49.5833 2.34896 49.6484 2.375 49.7266L4.83594 57.5234H4.84375L7.25781 49.7656C7.27865 49.6771 7.30469 49.6068 7.33594 49.5547C7.36719 49.4974 7.41927 49.4531 7.49219 49.4219C7.57031 49.3906 7.67969 49.3698 7.82031 49.3594C7.96094 49.349 8.15365 49.3438 8.39844 49.3438C8.63802 49.3438 8.82292 49.3516 8.95312 49.3672C9.08854 49.3828 9.17969 49.4219 9.22656 49.4844C9.27865 49.5417 9.29427 49.625 9.27344 49.7344C9.25781 49.8438 9.21875 49.9896 9.15625 50.1719L6.14062 59.1406ZM15.5078 59.2578C15.5078 59.3307 15.4818 59.388 15.4297 59.4297C15.3776 59.4714 15.2943 59.5 15.1797 59.5156C15.0703 59.5365 14.9062 59.5469 14.6875 59.5469C14.4531 59.5469 14.2812 59.5365 14.1719 59.5156C14.0677 59.5 13.9922 59.4714 13.9453 59.4297C13.9036 59.388 13.8828 59.3307 13.8828 59.2578V58.7031C13.5964 59.0104 13.2682 59.25 12.8984 59.4219C12.5339 59.5938 12.1276 59.6797 11.6797 59.6797C11.3099 59.6797 10.9688 59.6302 10.6562 59.5312C10.349 59.4375 10.0807 59.2969 9.85156 59.1094C9.6276 58.9167 9.45312 58.6797 9.32812 58.3984C9.20312 58.1172 9.14062 57.7891 9.14062 57.4141C9.14062 57.0078 9.21875 56.6562 9.375 56.3594C9.53646 56.0573 9.77344 55.8099 10.0859 55.6172C10.4036 55.4193 10.7969 55.2734 11.2656 55.1797C11.7344 55.0859 12.2786 55.0391 12.8984 55.0391H13.5781V54.6172C13.5781 54.3984 13.5547 54.2083 13.5078 54.0469C13.4661 53.8802 13.3932 53.7422 13.2891 53.6328C13.1901 53.5234 13.0547 53.4427 12.8828 53.3906C12.7161 53.3385 12.5078 53.3125 12.2578 53.3125C11.9297 53.3125 11.6354 53.349 11.375 53.4219C11.1198 53.4948 10.8932 53.5755 10.6953 53.6641C10.4974 53.7526 10.3307 53.8333 10.1953 53.9062C10.0651 53.9792 9.95833 54.0156 9.875 54.0156C9.81771 54.0156 9.76562 53.9974 9.71875 53.9609C9.67708 53.9245 9.64062 53.8724 9.60938 53.8047C9.58333 53.737 9.5625 53.6536 9.54688 53.5547C9.53125 53.4557 9.52344 53.3464 9.52344 53.2266C9.52344 53.0651 9.53646 52.9375 9.5625 52.8438C9.58854 52.75 9.63802 52.6667 9.71094 52.5938C9.78385 52.5156 9.91146 52.4323 10.0938 52.3438C10.276 52.25 10.4896 52.1641 10.7344 52.0859C10.9792 52.0078 11.2448 51.9453 11.5312 51.8984C11.8229 51.8464 12.1224 51.8203 12.4297 51.8203C12.9766 51.8203 13.4427 51.875 13.8281 51.9844C14.2188 52.0885 14.5391 52.2526 14.7891 52.4766C15.0391 52.6953 15.2214 52.9792 15.3359 53.3281C15.4505 53.6771 15.5078 54.0911 15.5078 54.5703V59.2578ZM13.5781 56.2734H12.8281C12.5104 56.2734 12.2396 56.2969 12.0156 56.3438C11.7917 56.3906 11.6094 56.4609 11.4688 56.5547C11.3281 56.6484 11.224 56.763 11.1562 56.8984C11.0938 57.0286 11.0625 57.1797 11.0625 57.3516C11.0625 57.6432 11.1536 57.8724 11.3359 58.0391C11.5234 58.2057 11.7812 58.2891 12.1094 58.2891C12.3854 58.2891 12.638 58.2188 12.8672 58.0781C13.1016 57.9375 13.3385 57.7318 13.5781 57.4609V56.2734ZM13.5469 48.8672C13.5573 48.7682 13.6068 48.6927 13.6953 48.6406C13.7891 48.5885 13.9505 48.5625 14.1797 48.5625C14.3151 48.5625 14.4271 48.5677 14.5156 48.5781C14.6042 48.5885 14.6719 48.6042 14.7188 48.625C14.7708 48.6458 14.8047 48.6745 14.8203 48.7109C14.8411 48.7474 14.8516 48.7891 14.8516 48.8359C14.8516 49.1849 14.8047 49.4948 14.7109 49.7656C14.6224 50.0365 14.4844 50.2656 14.2969 50.4531C14.1146 50.6354 13.8776 50.776 13.5859 50.875C13.2995 50.9688 12.9609 51.0156 12.5703 51.0156C12.1641 51.0156 11.8177 50.9688 11.5312 50.875C11.2448 50.776 11.0104 50.6354 10.8281 50.4531C10.6458 50.2656 10.5104 50.0391 10.4219 49.7734C10.3385 49.5026 10.2969 49.1953 10.2969 48.8516C10.2969 48.7474 10.3411 48.6745 10.4297 48.6328C10.5182 48.5859 10.6875 48.5625 10.9375 48.5625C11.0677 48.5625 11.1745 48.5677 11.2578 48.5781C11.3464 48.5885 11.4167 48.6068 11.4688 48.6328C11.5208 48.6589 11.5573 48.6927 11.5781 48.7344C11.599 48.7708 11.612 48.8151 11.6172 48.8672C11.6328 49.0078 11.6589 49.1354 11.6953 49.25C11.7318 49.3594 11.7865 49.4557 11.8594 49.5391C11.9375 49.6172 12.0339 49.6771 12.1484 49.7188C12.263 49.7604 12.4036 49.7812 12.5703 49.7812C12.7214 49.7812 12.8542 49.763 12.9688 49.7266C13.0833 49.6901 13.1823 49.6354 13.2656 49.5625C13.349 49.4844 13.4141 49.3906 13.4609 49.2812C13.5078 49.1667 13.5365 49.0286 13.5469 48.8672ZM24.1328 59.2344C24.1328 59.2865 24.1172 59.3333 24.0859 59.375C24.0547 59.4115 24.0026 59.4427 23.9297 59.4688C23.8568 59.4948 23.7552 59.513 23.625 59.5234C23.5 59.5391 23.3438 59.5469 23.1562 59.5469C22.9635 59.5469 22.8021 59.5391 22.6719 59.5234C22.5469 59.513 22.4479 59.4948 22.375 59.4688C22.3021 59.4427 22.25 59.4115 22.2188 59.375C22.1875 59.3333 22.1719 59.2865 22.1719 59.2344V55.2578C22.1719 54.9193 22.1458 54.6536 22.0938 54.4609C22.0469 54.2682 21.9766 54.1042 21.8828 53.9688C21.7891 53.8281 21.6667 53.7214 21.5156 53.6484C21.3698 53.5703 21.1979 53.5312 21 53.5312C20.75 53.5312 20.4974 53.6224 20.2422 53.8047C19.987 53.987 19.7214 54.2526 19.4453 54.6016V59.2344C19.4453 59.2865 19.4297 59.3333 19.3984 59.375C19.3672 59.4115 19.3125 59.4427 19.2344 59.4688C19.1615 59.4948 19.0625 59.513 18.9375 59.5234C18.8125 59.5391 18.6536 59.5469 18.4609 59.5469C18.2682 59.5469 18.1094 59.5391 17.9844 59.5234C17.8594 59.513 17.7578 59.4948 17.6797 59.4688C17.6068 59.4427 17.5547 59.4115 17.5234 59.375C17.4922 59.3333 17.4766 59.2865 17.4766 59.2344V52.2656C17.4766 52.2135 17.4896 52.1693 17.5156 52.1328C17.5417 52.0911 17.5885 52.0573 17.6562 52.0312C17.724 52.0052 17.8099 51.987 17.9141 51.9766C18.0234 51.9609 18.1589 51.9531 18.3203 51.9531C18.487 51.9531 18.625 51.9609 18.7344 51.9766C18.8438 51.987 18.9271 52.0052 18.9844 52.0312C19.0469 52.0573 19.0911 52.0911 19.1172 52.1328C19.1432 52.1693 19.1562 52.2135 19.1562 52.2656V53.0703C19.5417 52.6536 19.9323 52.3411 20.3281 52.1328C20.7292 51.9245 21.1458 51.8203 21.5781 51.8203C22.0521 51.8203 22.4505 51.8984 22.7734 52.0547C23.1016 52.2109 23.3646 52.4245 23.5625 52.6953C23.7656 52.9609 23.9115 53.2734 24 53.6328C24.0885 53.9922 24.1328 54.4245 24.1328 54.9297V59.2344ZM36.7109 55.6484C36.7109 56.2682 36.6432 56.8281 36.5078 57.3281C36.3776 57.8229 36.1849 58.2448 35.9297 58.5938C35.6745 58.9427 35.3568 59.2109 34.9766 59.3984C34.5964 59.5859 34.1615 59.6797 33.6719 59.6797C33.4688 59.6797 33.2812 59.6589 33.1094 59.6172C32.9427 59.5807 32.7786 59.5234 32.6172 59.4453C32.4609 59.362 32.3047 59.2604 32.1484 59.1406C31.9922 59.0208 31.8307 58.8802 31.6641 58.7188V62C31.6641 62.0521 31.6484 62.099 31.6172 62.1406C31.5859 62.1823 31.5312 62.2161 31.4531 62.2422C31.3802 62.2734 31.2812 62.2969 31.1562 62.3125C31.0312 62.3281 30.8724 62.3359 30.6797 62.3359C30.487 62.3359 30.3281 62.3281 30.2031 62.3125C30.0781 62.2969 29.9766 62.2734 29.8984 62.2422C29.8255 62.2161 29.7734 62.1823 29.7422 62.1406C29.7109 62.099 29.6953 62.0521 29.6953 62V52.2656C29.6953 52.2135 29.7083 52.1693 29.7344 52.1328C29.7604 52.0911 29.8047 52.0573 29.8672 52.0312C29.9349 52.0052 30.0208 51.987 30.125 51.9766C30.2344 51.9609 30.3698 51.9531 30.5312 51.9531C30.6875 51.9531 30.8177 51.9609 30.9219 51.9766C31.0312 51.987 31.1172 52.0052 31.1797 52.0312C31.2474 52.0573 31.2943 52.0911 31.3203 52.1328C31.3464 52.1693 31.3594 52.2135 31.3594 52.2656V53.0859C31.5625 52.8776 31.7604 52.6953 31.9531 52.5391C32.151 52.3776 32.3516 52.2448 32.5547 52.1406C32.7578 52.0312 32.9661 51.9505 33.1797 51.8984C33.3984 51.8464 33.6302 51.8203 33.875 51.8203C34.3854 51.8203 34.8203 51.9219 35.1797 52.125C35.5391 52.3229 35.8307 52.5964 36.0547 52.9453C36.2839 53.2943 36.4505 53.7005 36.5547 54.1641C36.6589 54.6276 36.7109 55.1224 36.7109 55.6484ZM34.6641 55.7891C34.6641 55.4922 34.6406 55.2083 34.5938 54.9375C34.5521 54.6615 34.4766 54.4167 34.3672 54.2031C34.263 53.9896 34.1224 53.8203 33.9453 53.6953C33.7734 53.5651 33.5573 53.5 33.2969 53.5C33.1667 53.5 33.0365 53.5208 32.9062 53.5625C32.7812 53.599 32.651 53.6615 32.5156 53.75C32.3854 53.8385 32.25 53.9531 32.1094 54.0938C31.9688 54.2344 31.8203 54.4089 31.6641 54.6172V56.9141C31.9401 57.263 32.2031 57.5339 32.4531 57.7266C32.7031 57.9141 32.9635 58.0078 33.2344 58.0078C33.4896 58.0078 33.7057 57.9427 33.8828 57.8125C34.0651 57.6823 34.2135 57.513 34.3281 57.3047C34.4427 57.0911 34.526 56.8516 34.5781 56.5859C34.6354 56.3203 34.6641 56.0547 34.6641 55.7891ZM44.9453 59.2344C44.9453 59.2865 44.9297 59.3333 44.8984 59.375C44.8672 59.4115 44.8151 59.4427 44.7422 59.4688C44.6693 59.4948 44.5677 59.513 44.4375 59.5234C44.3125 59.5391 44.1562 59.5469 43.9688 59.5469C43.776 59.5469 43.6146 59.5391 43.4844 59.5234C43.3594 59.513 43.2604 59.4948 43.1875 59.4688C43.1146 59.4427 43.0625 59.4115 43.0312 59.375C43 59.3333 42.9844 59.2865 42.9844 59.2344V55.2578C42.9844 54.9193 42.9583 54.6536 42.9062 54.4609C42.8594 54.2682 42.7891 54.1042 42.6953 53.9688C42.6016 53.8281 42.4792 53.7214 42.3281 53.6484C42.1823 53.5703 42.0104 53.5312 41.8125 53.5312C41.5625 53.5312 41.3099 53.6224 41.0547 53.8047C40.7995 53.987 40.5339 54.2526 40.2578 54.6016V59.2344C40.2578 59.2865 40.2422 59.3333 40.2109 59.375C40.1797 59.4115 40.125 59.4427 40.0469 59.4688C39.974 59.4948 39.875 59.513 39.75 59.5234C39.625 59.5391 39.4661 59.5469 39.2734 59.5469C39.0807 59.5469 38.9219 59.5391 38.7969 59.5234C38.6719 59.513 38.5703 59.4948 38.4922 59.4688C38.4193 59.4427 38.3672 59.4115 38.3359 59.375C38.3047 59.3333 38.2891 59.2865 38.2891 59.2344V48.9609C38.2891 48.9089 38.3047 48.862 38.3359 48.8203C38.3672 48.7786 38.4193 48.7448 38.4922 48.7188C38.5703 48.6875 38.6719 48.6641 38.7969 48.6484C38.9219 48.6328 39.0807 48.625 39.2734 48.625C39.4661 48.625 39.625 48.6328 39.75 48.6484C39.875 48.6641 39.974 48.6875 40.0469 48.7188C40.125 48.7448 40.1797 48.7786 40.2109 48.8203C40.2422 48.862 40.2578 48.9089 40.2578 48.9609V52.8125C40.5964 52.4792 40.9401 52.2318 41.2891 52.0703C41.6432 51.9036 42.0104 51.8203 42.3906 51.8203C42.8646 51.8203 43.263 51.8984 43.5859 52.0547C43.9141 52.2109 44.1771 52.4245 44.375 52.6953C44.5781 52.9661 44.724 53.2839 44.8125 53.6484C44.901 54.0078 44.9453 54.4453 44.9453 54.9609V59.2344ZM53.9297 55.6797C53.9297 56.2734 53.8516 56.8151 53.6953 57.3047C53.5391 57.7943 53.3021 58.2161 52.9844 58.5703C52.6667 58.9245 52.2682 59.1979 51.7891 59.3906C51.3099 59.5833 50.75 59.6797 50.1094 59.6797C49.4896 59.6797 48.9505 59.5938 48.4922 59.4219C48.0339 59.25 47.6536 59 47.3516 58.6719C47.0495 58.3438 46.8255 57.9401 46.6797 57.4609C46.5339 56.9818 46.4609 56.4349 46.4609 55.8203C46.4609 55.2266 46.5391 54.6849 46.6953 54.1953C46.8568 53.7005 47.0964 53.2786 47.4141 52.9297C47.7318 52.5755 48.1276 52.3021 48.6016 52.1094C49.0807 51.9167 49.6406 51.8203 50.2812 51.8203C50.9062 51.8203 51.4479 51.9062 51.9062 52.0781C52.3646 52.2448 52.7422 52.4922 53.0391 52.8203C53.3411 53.1484 53.5651 53.5521 53.7109 54.0312C53.8568 54.5104 53.9297 55.0599 53.9297 55.6797ZM51.9062 55.7578C51.9062 55.4141 51.8776 55.099 51.8203 54.8125C51.7682 54.5208 51.6771 54.2682 51.5469 54.0547C51.4167 53.8411 51.2422 53.6745 51.0234 53.5547C50.8099 53.4349 50.5391 53.375 50.2109 53.375C49.9193 53.375 49.6641 53.4297 49.4453 53.5391C49.2266 53.6432 49.0469 53.7995 48.9062 54.0078C48.7656 54.2109 48.6589 54.4583 48.5859 54.75C48.5182 55.0365 48.4844 55.3646 48.4844 55.7344C48.4844 56.0781 48.513 56.3958 48.5703 56.6875C48.6276 56.974 48.7188 57.224 48.8438 57.4375C48.974 57.651 49.1484 57.8177 49.3672 57.9375C49.5859 58.0521 49.8568 58.1094 50.1797 58.1094C50.4766 58.1094 50.7344 58.0573 50.9531 57.9531C51.1719 57.8438 51.3516 57.6875 51.4922 57.4844C51.6328 57.2812 51.737 57.0365 51.8047 56.75C51.8724 56.4583 51.9062 56.1276 51.9062 55.7578ZM51.0234 50.6328C51.0703 50.7005 51.099 50.7604 51.1094 50.8125C51.1198 50.8646 51.1016 50.9089 51.0547 50.9453C51.013 50.9766 50.9401 51 50.8359 51.0156C50.737 51.0312 50.5964 51.0391 50.4141 51.0391C50.263 51.0391 50.138 51.0339 50.0391 51.0234C49.9401 51.013 49.8568 50.9974 49.7891 50.9766C49.7214 50.9557 49.6641 50.9297 49.6172 50.8984C49.5755 50.862 49.5339 50.8177 49.4922 50.7656L47.9844 48.9531C47.9323 48.8958 47.9036 48.8411 47.8984 48.7891C47.8932 48.737 47.9193 48.6927 47.9766 48.6562C48.0391 48.6146 48.1406 48.5833 48.2812 48.5625C48.4219 48.5417 48.612 48.5312 48.8516 48.5312C49.0234 48.5312 49.1667 48.5365 49.2812 48.5469C49.401 48.5573 49.5 48.5755 49.5781 48.6016C49.6562 48.6224 49.7188 48.6536 49.7656 48.6953C49.8177 48.737 49.8646 48.7865 49.9062 48.8438L51.0234 50.6328ZM62.1484 59.2344C62.1484 59.2865 62.1328 59.3333 62.1016 59.375C62.0703 59.4115 62.0182 59.4427 61.9453 59.4688C61.8724 59.4948 61.7708 59.513 61.6406 59.5234C61.5156 59.5391 61.3594 59.5469 61.1719 59.5469C60.9792 59.5469 60.8177 59.5391 60.6875 59.5234C60.5625 59.513 60.4635 59.4948 60.3906 59.4688C60.3177 59.4427 60.2656 59.4115 60.2344 59.375C60.2031 59.3333 60.1875 59.2865 60.1875 59.2344V55.2578C60.1875 54.9193 60.1615 54.6536 60.1094 54.4609C60.0625 54.2682 59.9922 54.1042 59.8984 53.9688C59.8047 53.8281 59.6823 53.7214 59.5312 53.6484C59.3854 53.5703 59.2135 53.5312 59.0156 53.5312C58.7656 53.5312 58.513 53.6224 58.2578 53.8047C58.0026 53.987 57.737 54.2526 57.4609 54.6016V59.2344C57.4609 59.2865 57.4453 59.3333 57.4141 59.375C57.3828 59.4115 57.3281 59.4427 57.25 59.4688C57.1771 59.4948 57.0781 59.513 56.9531 59.5234C56.8281 59.5391 56.6693 59.5469 56.4766 59.5469C56.2839 59.5469 56.125 59.5391 56 59.5234C55.875 59.513 55.7734 59.4948 55.6953 59.4688C55.6224 59.4427 55.5703 59.4115 55.5391 59.375C55.5078 59.3333 55.4922 59.2865 55.4922 59.2344V52.2656C55.4922 52.2135 55.5052 52.1693 55.5312 52.1328C55.5573 52.0911 55.6042 52.0573 55.6719 52.0312C55.7396 52.0052 55.8255 51.987 55.9297 51.9766C56.0391 51.9609 56.1745 51.9531 56.3359 51.9531C56.5026 51.9531 56.6406 51.9609 56.75 51.9766C56.8594 51.987 56.9427 52.0052 57 52.0312C57.0625 52.0573 57.1068 52.0911 57.1328 52.1328C57.1589 52.1693 57.1719 52.2135 57.1719 52.2656V53.0703C57.5573 52.6536 57.9479 52.3411 58.3438 52.1328C58.7448 51.9245 59.1615 51.8203 59.5938 51.8203C60.0677 51.8203 60.4661 51.8984 60.7891 52.0547C61.1172 52.2109 61.3802 52.4245 61.5781 52.6953C61.7812 52.9609 61.9271 53.2734 62.0156 53.6328C62.1042 53.9922 62.1484 54.4245 62.1484 54.9297V59.2344ZM70.3672 52.75C70.3672 53 70.3385 53.1849 70.2812 53.3047C70.224 53.4245 70.1536 53.4844 70.0703 53.4844H69.25C69.3646 53.6094 69.4453 53.7526 69.4922 53.9141C69.5443 54.0703 69.5703 54.2344 69.5703 54.4062C69.5703 54.8125 69.5026 55.1745 69.3672 55.4922C69.2318 55.8047 69.0365 56.0703 68.7812 56.2891C68.5312 56.5026 68.2266 56.6667 67.8672 56.7812C67.513 56.8906 67.1172 56.9453 66.6797 56.9453C66.4557 56.9453 66.2422 56.9193 66.0391 56.8672C65.8359 56.8099 65.6797 56.7448 65.5703 56.6719C65.5078 56.7396 65.4505 56.8203 65.3984 56.9141C65.3516 57.0078 65.3281 57.112 65.3281 57.2266C65.3281 57.3776 65.3932 57.5026 65.5234 57.6016C65.6589 57.6953 65.8464 57.7474 66.0859 57.7578L67.7812 57.8203C68.1771 57.8359 68.5286 57.8932 68.8359 57.9922C69.1484 58.0859 69.4089 58.2214 69.6172 58.3984C69.8307 58.5703 69.9922 58.7786 70.1016 59.0234C70.2161 59.2682 70.2734 59.5469 70.2734 59.8594C70.2734 60.2031 70.1979 60.526 70.0469 60.8281C69.8958 61.1354 69.6693 61.401 69.3672 61.625C69.0651 61.849 68.6849 62.026 68.2266 62.1562C67.7734 62.2865 67.2422 62.3516 66.6328 62.3516C66.0391 62.3516 65.5312 62.3047 65.1094 62.2109C64.6927 62.1172 64.349 61.987 64.0781 61.8203C63.8125 61.6536 63.6172 61.4531 63.4922 61.2188C63.3724 60.9896 63.3125 60.737 63.3125 60.4609C63.3125 60.2891 63.3333 60.125 63.375 59.9688C63.4219 59.8125 63.487 59.6615 63.5703 59.5156C63.6589 59.375 63.7656 59.2396 63.8906 59.1094C64.0156 58.9792 64.1589 58.8542 64.3203 58.7344C64.0964 58.6146 63.9219 58.4531 63.7969 58.25C63.6771 58.0417 63.6172 57.8151 63.6172 57.5703C63.6172 57.263 63.6875 56.9844 63.8281 56.7344C63.9688 56.4792 64.151 56.25 64.375 56.0469C64.1927 55.8646 64.0469 55.6458 63.9375 55.3906C63.8281 55.1354 63.7734 54.8177 63.7734 54.4375C63.7734 54.0312 63.8438 53.6693 63.9844 53.3516C64.1302 53.0286 64.3307 52.7578 64.5859 52.5391C64.8411 52.3151 65.1458 52.1458 65.5 52.0312C65.8542 51.9115 66.2448 51.8516 66.6719 51.8516C66.8906 51.8516 67.099 51.8646 67.2969 51.8906C67.5 51.9167 67.6875 51.9531 67.8594 52H70.0703C70.1589 52 70.2292 52.0573 70.2812 52.1719C70.3385 52.2865 70.3672 52.4792 70.3672 52.75ZM67.8438 54.3984C67.8438 54.0234 67.7396 53.7318 67.5312 53.5234C67.3229 53.3151 67.0286 53.2109 66.6484 53.2109C66.4557 53.2109 66.2865 53.2448 66.1406 53.3125C65.9948 53.375 65.8724 53.4635 65.7734 53.5781C65.6797 53.6875 65.6094 53.8177 65.5625 53.9688C65.5156 54.1146 65.4922 54.2682 65.4922 54.4297C65.4922 54.7839 65.5964 55.0651 65.8047 55.2734C66.013 55.4766 66.3021 55.5781 66.6719 55.5781C66.8698 55.5781 67.0417 55.5469 67.1875 55.4844C67.3333 55.4219 67.4531 55.3359 67.5469 55.2266C67.6458 55.1172 67.7188 54.9922 67.7656 54.8516C67.8177 54.7057 67.8438 54.5547 67.8438 54.3984ZM68.3047 59.9609C68.3047 59.7266 68.2109 59.5469 68.0234 59.4219C67.8359 59.2969 67.5781 59.2292 67.25 59.2188L65.8516 59.1797C65.7161 59.2786 65.6068 59.375 65.5234 59.4688C65.4453 59.5573 65.3802 59.6432 65.3281 59.7266C65.2812 59.8099 65.25 59.8906 65.2344 59.9688C65.2188 60.0469 65.2109 60.1276 65.2109 60.2109C65.2109 60.4714 65.3411 60.6693 65.6016 60.8047C65.8672 60.9401 66.2396 61.0078 66.7188 61.0078C67.0156 61.0078 67.2656 60.9766 67.4688 60.9141C67.6719 60.8568 67.8359 60.7786 67.9609 60.6797C68.0859 60.5807 68.1745 60.4688 68.2266 60.3438C68.2786 60.224 68.3047 60.0964 68.3047 59.9609ZM81.9609 59.2344C81.9609 59.2865 81.9453 59.3333 81.9141 59.375C81.8828 59.4115 81.8307 59.4427 81.7578 59.4688C81.6849 59.4948 81.5833 59.513 81.4531 59.5234C81.3281 59.5391 81.1719 59.5469 80.9844 59.5469C80.7917 59.5469 80.6302 59.5391 80.5 59.5234C80.375 59.513 80.276 59.4948 80.2031 59.4688C80.1302 59.4427 80.0781 59.4115 80.0469 59.375C80.0156 59.3333 80 59.2865 80 59.2344V55.2578C80 54.9193 79.974 54.6536 79.9219 54.4609C79.875 54.2682 79.8047 54.1042 79.7109 53.9688C79.6172 53.8281 79.4948 53.7214 79.3438 53.6484C79.1979 53.5703 79.026 53.5312 78.8281 53.5312C78.5781 53.5312 78.3255 53.6224 78.0703 53.8047C77.8151 53.987 77.5495 54.2526 77.2734 54.6016V59.2344C77.2734 59.2865 77.2578 59.3333 77.2266 59.375C77.1953 59.4115 77.1406 59.4427 77.0625 59.4688C76.9896 59.4948 76.8906 59.513 76.7656 59.5234C76.6406 59.5391 76.4818 59.5469 76.2891 59.5469C76.0964 59.5469 75.9375 59.5391 75.8125 59.5234C75.6875 59.513 75.5859 59.4948 75.5078 59.4688C75.4349 59.4427 75.3828 59.4115 75.3516 59.375C75.3203 59.3333 75.3047 59.2865 75.3047 59.2344V48.9609C75.3047 48.9089 75.3203 48.862 75.3516 48.8203C75.3828 48.7786 75.4349 48.7448 75.5078 48.7188C75.5859 48.6875 75.6875 48.6641 75.8125 48.6484C75.9375 48.6328 76.0964 48.625 76.2891 48.625C76.4818 48.625 76.6406 48.6328 76.7656 48.6484C76.8906 48.6641 76.9896 48.6875 77.0625 48.7188C77.1406 48.7448 77.1953 48.7786 77.2266 48.8203C77.2578 48.862 77.2734 48.9089 77.2734 48.9609V52.8125C77.612 52.4792 77.9557 52.2318 78.3047 52.0703C78.6589 51.9036 79.026 51.8203 79.4062 51.8203C79.8802 51.8203 80.2786 51.8984 80.6016 52.0547C80.9297 52.2109 81.1927 52.4245 81.3906 52.6953C81.5938 52.9661 81.7396 53.2839 81.8281 53.6484C81.9167 54.0078 81.9609 54.4453 81.9609 54.9609V59.2344ZM89.8359 59.2578C89.8359 59.3307 89.8099 59.388 89.7578 59.4297C89.7057 59.4714 89.6224 59.5 89.5078 59.5156C89.3984 59.5365 89.2344 59.5469 89.0156 59.5469C88.7812 59.5469 88.6094 59.5365 88.5 59.5156C88.3958 59.5 88.3203 59.4714 88.2734 59.4297C88.2318 59.388 88.2109 59.3307 88.2109 59.2578V58.7031C87.9245 59.0104 87.5964 59.25 87.2266 59.4219C86.862 59.5938 86.4557 59.6797 86.0078 59.6797C85.638 59.6797 85.2969 59.6302 84.9844 59.5312C84.6771 59.4375 84.4089 59.2969 84.1797 59.1094C83.9557 58.9167 83.7812 58.6797 83.6562 58.3984C83.5312 58.1172 83.4688 57.7891 83.4688 57.4141C83.4688 57.0078 83.5469 56.6562 83.7031 56.3594C83.8646 56.0573 84.1016 55.8099 84.4141 55.6172C84.7318 55.4193 85.125 55.2734 85.5938 55.1797C86.0625 55.0859 86.6068 55.0391 87.2266 55.0391H87.9062V54.6172C87.9062 54.3984 87.8828 54.2083 87.8359 54.0469C87.7943 53.8802 87.7214 53.7422 87.6172 53.6328C87.5182 53.5234 87.3828 53.4427 87.2109 53.3906C87.0443 53.3385 86.8359 53.3125 86.5859 53.3125C86.2578 53.3125 85.9635 53.349 85.7031 53.4219C85.4479 53.4948 85.2214 53.5755 85.0234 53.6641C84.8255 53.7526 84.6589 53.8333 84.5234 53.9062C84.3932 53.9792 84.2865 54.0156 84.2031 54.0156C84.1458 54.0156 84.0938 53.9974 84.0469 53.9609C84.0052 53.9245 83.9688 53.8724 83.9375 53.8047C83.9115 53.737 83.8906 53.6536 83.875 53.5547C83.8594 53.4557 83.8516 53.3464 83.8516 53.2266C83.8516 53.0651 83.8646 52.9375 83.8906 52.8438C83.9167 52.75 83.9661 52.6667 84.0391 52.5938C84.112 52.5156 84.2396 52.4323 84.4219 52.3438C84.6042 52.25 84.8177 52.1641 85.0625 52.0859C85.3073 52.0078 85.5729 51.9453 85.8594 51.8984C86.151 51.8464 86.4505 51.8203 86.7578 51.8203C87.3047 51.8203 87.7708 51.875 88.1562 51.9844C88.5469 52.0885 88.8672 52.2526 89.1172 52.4766C89.3672 52.6953 89.5495 52.9792 89.6641 53.3281C89.7786 53.6771 89.8359 54.0911 89.8359 54.5703V59.2578ZM87.9062 56.2734H87.1562C86.8385 56.2734 86.5677 56.2969 86.3438 56.3438C86.1198 56.3906 85.9375 56.4609 85.7969 56.5547C85.6562 56.6484 85.5521 56.763 85.4844 56.8984C85.4219 57.0286 85.3906 57.1797 85.3906 57.3516C85.3906 57.6432 85.4818 57.8724 85.6641 58.0391C85.8516 58.2057 86.1094 58.2891 86.4375 58.2891C86.7135 58.2891 86.9661 58.2188 87.1953 58.0781C87.4297 57.9375 87.6667 57.7318 87.9062 57.4609V56.2734ZM87.9531 61.1094C87.9531 61.2969 87.9349 61.4531 87.8984 61.5781C87.8672 61.7083 87.8099 61.8125 87.7266 61.8906C87.6432 61.9688 87.5312 62.0234 87.3906 62.0547C87.25 62.0911 87.0755 62.1094 86.8672 62.1094C86.6589 62.1094 86.4844 62.0911 86.3438 62.0547C86.2083 62.0234 86.099 61.9688 86.0156 61.8906C85.9323 61.8177 85.8724 61.7188 85.8359 61.5938C85.8047 61.474 85.7891 61.3255 85.7891 61.1484C85.7891 60.9609 85.8073 60.8021 85.8438 60.6719C85.8802 60.5469 85.9401 60.4453 86.0234 60.3672C86.1068 60.2891 86.2188 60.2318 86.3594 60.1953C86.5 60.1641 86.6745 60.1484 86.8828 60.1484C87.0911 60.1484 87.263 60.1641 87.3984 60.1953C87.5391 60.2318 87.6484 60.2865 87.7266 60.3594C87.8099 60.4375 87.8672 60.5365 87.8984 60.6562C87.9349 60.7812 87.9531 60.9323 87.9531 61.1094ZM98.4609 59.2344C98.4609 59.2865 98.4453 59.3333 98.4141 59.375C98.3828 59.4115 98.3307 59.4427 98.2578 59.4688C98.1849 59.4948 98.0833 59.513 97.9531 59.5234C97.8281 59.5391 97.6719 59.5469 97.4844 59.5469C97.2917 59.5469 97.1302 59.5391 97 59.5234C96.875 59.513 96.776 59.4948 96.7031 59.4688C96.6302 59.4427 96.5781 59.4115 96.5469 59.375C96.5156 59.3333 96.5 59.2865 96.5 59.2344V55.2578C96.5 54.9193 96.474 54.6536 96.4219 54.4609C96.375 54.2682 96.3047 54.1042 96.2109 53.9688C96.1172 53.8281 95.9948 53.7214 95.8438 53.6484C95.6979 53.5703 95.526 53.5312 95.3281 53.5312C95.0781 53.5312 94.8255 53.6224 94.5703 53.8047C94.3151 53.987 94.0495 54.2526 93.7734 54.6016V59.2344C93.7734 59.2865 93.7578 59.3333 93.7266 59.375C93.6953 59.4115 93.6406 59.4427 93.5625 59.4688C93.4896 59.4948 93.3906 59.513 93.2656 59.5234C93.1406 59.5391 92.9818 59.5469 92.7891 59.5469C92.5964 59.5469 92.4375 59.5391 92.3125 59.5234C92.1875 59.513 92.0859 59.4948 92.0078 59.4688C91.9349 59.4427 91.8828 59.4115 91.8516 59.375C91.8203 59.3333 91.8047 59.2865 91.8047 59.2344V52.2656C91.8047 52.2135 91.8177 52.1693 91.8438 52.1328C91.8698 52.0911 91.9167 52.0573 91.9844 52.0312C92.0521 52.0052 92.138 51.987 92.2422 51.9766C92.3516 51.9609 92.487 51.9531 92.6484 51.9531C92.8151 51.9531 92.9531 51.9609 93.0625 51.9766C93.1719 51.987 93.2552 52.0052 93.3125 52.0312C93.375 52.0573 93.4193 52.0911 93.4453 52.1328C93.4714 52.1693 93.4844 52.2135 93.4844 52.2656V53.0703C93.8698 52.6536 94.2604 52.3411 94.6562 52.1328C95.0573 51.9245 95.474 51.8203 95.9062 51.8203C96.3802 51.8203 96.7786 51.8984 97.1016 52.0547C97.4297 52.2109 97.6927 52.4245 97.8906 52.6953C98.0938 52.9609 98.2396 53.2734 98.3281 53.6328C98.4167 53.9922 98.4609 54.4245 98.4609 54.9297V59.2344ZM106.68 52.75C106.68 53 106.651 53.1849 106.594 53.3047C106.536 53.4245 106.466 53.4844 106.383 53.4844H105.562C105.677 53.6094 105.758 53.7526 105.805 53.9141C105.857 54.0703 105.883 54.2344 105.883 54.4062C105.883 54.8125 105.815 55.1745 105.68 55.4922C105.544 55.8047 105.349 56.0703 105.094 56.2891C104.844 56.5026 104.539 56.6667 104.18 56.7812C103.826 56.8906 103.43 56.9453 102.992 56.9453C102.768 56.9453 102.555 56.9193 102.352 56.8672C102.148 56.8099 101.992 56.7448 101.883 56.6719C101.82 56.7396 101.763 56.8203 101.711 56.9141C101.664 57.0078 101.641 57.112 101.641 57.2266C101.641 57.3776 101.706 57.5026 101.836 57.6016C101.971 57.6953 102.159 57.7474 102.398 57.7578L104.094 57.8203C104.49 57.8359 104.841 57.8932 105.148 57.9922C105.461 58.0859 105.721 58.2214 105.93 58.3984C106.143 58.5703 106.305 58.7786 106.414 59.0234C106.529 59.2682 106.586 59.5469 106.586 59.8594C106.586 60.2031 106.51 60.526 106.359 60.8281C106.208 61.1354 105.982 61.401 105.68 61.625C105.378 61.849 104.997 62.026 104.539 62.1562C104.086 62.2865 103.555 62.3516 102.945 62.3516C102.352 62.3516 101.844 62.3047 101.422 62.2109C101.005 62.1172 100.661 61.987 100.391 61.8203C100.125 61.6536 99.9297 61.4531 99.8047 61.2188C99.6849 60.9896 99.625 60.737 99.625 60.4609C99.625 60.2891 99.6458 60.125 99.6875 59.9688C99.7344 59.8125 99.7995 59.6615 99.8828 59.5156C99.9714 59.375 100.078 59.2396 100.203 59.1094C100.328 58.9792 100.471 58.8542 100.633 58.7344C100.409 58.6146 100.234 58.4531 100.109 58.25C99.9896 58.0417 99.9297 57.8151 99.9297 57.5703C99.9297 57.263 100 56.9844 100.141 56.7344C100.281 56.4792 100.464 56.25 100.688 56.0469C100.505 55.8646 100.359 55.6458 100.25 55.3906C100.141 55.1354 100.086 54.8177 100.086 54.4375C100.086 54.0312 100.156 53.6693 100.297 53.3516C100.443 53.0286 100.643 52.7578 100.898 52.5391C101.154 52.3151 101.458 52.1458 101.812 52.0312C102.167 51.9115 102.557 51.8516 102.984 51.8516C103.203 51.8516 103.411 51.8646 103.609 51.8906C103.812 51.9167 104 51.9531 104.172 52H106.383C106.471 52 106.542 52.0573 106.594 52.1719C106.651 52.2865 106.68 52.4792 106.68 52.75ZM104.156 54.3984C104.156 54.0234 104.052 53.7318 103.844 53.5234C103.635 53.3151 103.341 53.2109 102.961 53.2109C102.768 53.2109 102.599 53.2448 102.453 53.3125C102.307 53.375 102.185 53.4635 102.086 53.5781C101.992 53.6875 101.922 53.8177 101.875 53.9688C101.828 54.1146 101.805 54.2682 101.805 54.4297C101.805 54.7839 101.909 55.0651 102.117 55.2734C102.326 55.4766 102.615 55.5781 102.984 55.5781C103.182 55.5781 103.354 55.5469 103.5 55.4844C103.646 55.4219 103.766 55.3359 103.859 55.2266C103.958 55.1172 104.031 54.9922 104.078 54.8516C104.13 54.7057 104.156 54.5547 104.156 54.3984ZM104.617 59.9609C104.617 59.7266 104.523 59.5469 104.336 59.4219C104.148 59.2969 103.891 59.2292 103.562 59.2188L102.164 59.1797C102.029 59.2786 101.919 59.375 101.836 59.4688C101.758 59.5573 101.693 59.6432 101.641 59.7266C101.594 59.8099 101.562 59.8906 101.547 59.9688C101.531 60.0469 101.523 60.1276 101.523 60.2109C101.523 60.4714 101.654 60.6693 101.914 60.8047C102.18 60.9401 102.552 61.0078 103.031 61.0078C103.328 61.0078 103.578 60.9766 103.781 60.9141C103.984 60.8568 104.148 60.7786 104.273 60.6797C104.398 60.5807 104.487 60.4688 104.539 60.3438C104.591 60.224 104.617 60.0964 104.617 59.9609ZM120.016 58.7344C120.078 58.9219 120.117 59.0703 120.133 59.1797C120.148 59.2891 120.128 59.3724 120.07 59.4297C120.013 59.4818 119.911 59.513 119.766 59.5234C119.62 59.5391 119.419 59.5469 119.164 59.5469C118.898 59.5469 118.69 59.5417 118.539 59.5312C118.393 59.526 118.281 59.513 118.203 59.4922C118.125 59.4661 118.07 59.4323 118.039 59.3906C118.008 59.349 117.982 59.2943 117.961 59.2266L117.281 57.1953H113.484L112.844 59.1719C112.823 59.2448 112.794 59.3073 112.758 59.3594C112.727 59.4062 112.672 59.4453 112.594 59.4766C112.521 59.5026 112.414 59.5208 112.273 59.5312C112.138 59.5417 111.958 59.5469 111.734 59.5469C111.495 59.5469 111.307 59.5391 111.172 59.5234C111.036 59.5078 110.943 59.4714 110.891 59.4141C110.839 59.3516 110.82 59.2656 110.836 59.1562C110.852 59.0469 110.891 58.901 110.953 58.7188L114.07 49.75C114.102 49.6615 114.138 49.5911 114.18 49.5391C114.221 49.4818 114.286 49.4401 114.375 49.4141C114.469 49.3828 114.596 49.3646 114.758 49.3594C114.919 49.349 115.133 49.3438 115.398 49.3438C115.706 49.3438 115.951 49.349 116.133 49.3594C116.315 49.3646 116.456 49.3828 116.555 49.4141C116.659 49.4401 116.732 49.4818 116.773 49.5391C116.82 49.5964 116.859 49.6745 116.891 49.7734L120.016 58.7344ZM115.375 51.3203H115.367L113.938 55.6172H116.805L115.375 51.3203ZM128.398 55.5703C128.398 55.8724 128.37 56.0833 128.312 56.2031C128.255 56.3229 128.164 56.3828 128.039 56.3828H124.789C124.659 56.3828 124.565 56.3229 124.508 56.2031C124.451 56.0781 124.422 55.8672 124.422 55.5703C124.422 55.2786 124.451 55.0729 124.508 54.9531C124.565 54.8333 124.659 54.7734 124.789 54.7734H128.039C128.102 54.7734 128.154 54.7865 128.195 54.8125C128.242 54.8385 128.281 54.8828 128.312 54.9453C128.344 55.0078 128.365 55.0911 128.375 55.1953C128.391 55.2995 128.398 55.4245 128.398 55.5703ZM141.93 58.7812C141.93 58.901 141.909 59.0078 141.867 59.1016C141.826 59.1953 141.768 59.2734 141.695 59.3359C141.628 59.3984 141.544 59.4453 141.445 59.4766C141.352 59.5026 141.255 59.5156 141.156 59.5156H140.281C140.099 59.5156 139.94 59.4974 139.805 59.4609C139.674 59.4245 139.552 59.3594 139.438 59.2656C139.328 59.1667 139.221 59.0365 139.117 58.875C139.013 58.7083 138.896 58.4948 138.766 58.2344L136.25 53.5078C136.104 53.2266 135.956 52.9245 135.805 52.6016C135.654 52.2734 135.518 51.9557 135.398 51.6484H135.383C135.404 52.0234 135.419 52.3984 135.43 52.7734C135.44 53.1432 135.445 53.526 135.445 53.9219V59.2109C135.445 59.263 135.43 59.3099 135.398 59.3516C135.372 59.3932 135.323 59.4297 135.25 59.4609C135.182 59.487 135.089 59.5078 134.969 59.5234C134.849 59.5391 134.695 59.5469 134.508 59.5469C134.326 59.5469 134.174 59.5391 134.055 59.5234C133.935 59.5078 133.841 59.487 133.773 59.4609C133.706 59.4297 133.659 59.3932 133.633 59.3516C133.607 59.3099 133.594 59.263 133.594 59.2109V50.125C133.594 49.8802 133.664 49.6979 133.805 49.5781C133.951 49.4531 134.128 49.3906 134.336 49.3906H135.438C135.635 49.3906 135.802 49.4089 135.938 49.4453C136.073 49.4766 136.193 49.5312 136.297 49.6094C136.406 49.6875 136.508 49.7969 136.602 49.9375C136.695 50.0729 136.792 50.2422 136.891 50.4453L138.859 54.1406C138.974 54.3646 139.086 54.5859 139.195 54.8047C139.31 55.0182 139.419 55.2344 139.523 55.4531C139.628 55.6667 139.729 55.8776 139.828 56.0859C139.927 56.2943 140.023 56.5026 140.117 56.7109H140.125C140.109 56.3464 140.096 55.9661 140.086 55.5703C140.081 55.1745 140.078 54.7969 140.078 54.4375V49.6953C140.078 49.6432 140.094 49.5964 140.125 49.5547C140.156 49.513 140.208 49.4766 140.281 49.4453C140.354 49.4141 140.451 49.3932 140.57 49.3828C140.69 49.3672 140.844 49.3594 141.031 49.3594C141.208 49.3594 141.357 49.3672 141.477 49.3828C141.596 49.3932 141.688 49.4141 141.75 49.4453C141.818 49.4766 141.865 49.513 141.891 49.5547C141.917 49.5964 141.93 49.6432 141.93 49.6953V58.7812ZM149.961 59.2578C149.961 59.3307 149.935 59.388 149.883 59.4297C149.831 59.4714 149.747 59.5 149.633 59.5156C149.523 59.5365 149.359 59.5469 149.141 59.5469C148.906 59.5469 148.734 59.5365 148.625 59.5156C148.521 59.5 148.445 59.4714 148.398 59.4297C148.357 59.388 148.336 59.3307 148.336 59.2578V58.7031C148.049 59.0104 147.721 59.25 147.352 59.4219C146.987 59.5938 146.581 59.6797 146.133 59.6797C145.763 59.6797 145.422 59.6302 145.109 59.5312C144.802 59.4375 144.534 59.2969 144.305 59.1094C144.081 58.9167 143.906 58.6797 143.781 58.3984C143.656 58.1172 143.594 57.7891 143.594 57.4141C143.594 57.0078 143.672 56.6562 143.828 56.3594C143.99 56.0573 144.227 55.8099 144.539 55.6172C144.857 55.4193 145.25 55.2734 145.719 55.1797C146.188 55.0859 146.732 55.0391 147.352 55.0391H148.031V54.6172C148.031 54.3984 148.008 54.2083 147.961 54.0469C147.919 53.8802 147.846 53.7422 147.742 53.6328C147.643 53.5234 147.508 53.4427 147.336 53.3906C147.169 53.3385 146.961 53.3125 146.711 53.3125C146.383 53.3125 146.089 53.349 145.828 53.4219C145.573 53.4948 145.346 53.5755 145.148 53.6641C144.951 53.7526 144.784 53.8333 144.648 53.9062C144.518 53.9792 144.411 54.0156 144.328 54.0156C144.271 54.0156 144.219 53.9974 144.172 53.9609C144.13 53.9245 144.094 53.8724 144.062 53.8047C144.036 53.737 144.016 53.6536 144 53.5547C143.984 53.4557 143.977 53.3464 143.977 53.2266C143.977 53.0651 143.99 52.9375 144.016 52.8438C144.042 52.75 144.091 52.6667 144.164 52.5938C144.237 52.5156 144.365 52.4323 144.547 52.3438C144.729 52.25 144.943 52.1641 145.188 52.0859C145.432 52.0078 145.698 51.9453 145.984 51.8984C146.276 51.8464 146.576 51.8203 146.883 51.8203C147.43 51.8203 147.896 51.875 148.281 51.9844C148.672 52.0885 148.992 52.2526 149.242 52.4766C149.492 52.6953 149.674 52.9792 149.789 53.3281C149.904 53.6771 149.961 54.0911 149.961 54.5703V59.2578ZM148.031 56.2734H147.281C146.964 56.2734 146.693 56.2969 146.469 56.3438C146.245 56.3906 146.062 56.4609 145.922 56.5547C145.781 56.6484 145.677 56.763 145.609 56.8984C145.547 57.0286 145.516 57.1797 145.516 57.3516C145.516 57.6432 145.607 57.8724 145.789 58.0391C145.977 58.2057 146.234 58.2891 146.562 58.2891C146.839 58.2891 147.091 58.2188 147.32 58.0781C147.555 57.9375 147.792 57.7318 148.031 57.4609V56.2734ZM146.25 50.7656C146.214 50.8229 146.177 50.8698 146.141 50.9062C146.104 50.9427 146.055 50.9714 145.992 50.9922C145.93 51.0078 145.849 51.0208 145.75 51.0312C145.656 51.0365 145.531 51.0391 145.375 51.0391C145.167 51.0391 145.005 51.0312 144.891 51.0156C144.781 50.9948 144.708 50.9661 144.672 50.9297C144.635 50.888 144.63 50.8333 144.656 50.7656C144.688 50.6979 144.74 50.6172 144.812 50.5234L146.047 48.7812C146.078 48.7292 146.117 48.6901 146.164 48.6641C146.216 48.6328 146.281 48.6068 146.359 48.5859C146.443 48.5651 146.542 48.5521 146.656 48.5469C146.771 48.5365 146.909 48.5312 147.07 48.5312C147.237 48.5312 147.375 48.5365 147.484 48.5469C147.599 48.5573 147.693 48.5729 147.766 48.5938C147.844 48.6146 147.906 48.6406 147.953 48.6719C148 48.7031 148.042 48.7396 148.078 48.7812L149.305 50.5234C149.378 50.6224 149.427 50.7057 149.453 50.7734C149.479 50.8359 149.474 50.888 149.438 50.9297C149.401 50.9661 149.326 50.9948 149.211 51.0156C149.102 51.0312 148.945 51.0391 148.742 51.0391C148.576 51.0391 148.443 51.0365 148.344 51.0312C148.25 51.0208 148.172 51.0052 148.109 50.9844C148.052 50.9635 148.008 50.9375 147.977 50.9062C147.945 50.8698 147.911 50.8229 147.875 50.7656L147.062 49.5938L146.25 50.7656ZM158.586 59.2344C158.586 59.2865 158.57 59.3333 158.539 59.375C158.508 59.4115 158.456 59.4427 158.383 59.4688C158.31 59.4948 158.208 59.513 158.078 59.5234C157.953 59.5391 157.797 59.5469 157.609 59.5469C157.417 59.5469 157.255 59.5391 157.125 59.5234C157 59.513 156.901 59.4948 156.828 59.4688C156.755 59.4427 156.703 59.4115 156.672 59.375C156.641 59.3333 156.625 59.2865 156.625 59.2344V55.2578C156.625 54.9193 156.599 54.6536 156.547 54.4609C156.5 54.2682 156.43 54.1042 156.336 53.9688C156.242 53.8281 156.12 53.7214 155.969 53.6484C155.823 53.5703 155.651 53.5312 155.453 53.5312C155.203 53.5312 154.951 53.6224 154.695 53.8047C154.44 53.987 154.174 54.2526 153.898 54.6016V59.2344C153.898 59.2865 153.883 59.3333 153.852 59.375C153.82 59.4115 153.766 59.4427 153.688 59.4688C153.615 59.4948 153.516 59.513 153.391 59.5234C153.266 59.5391 153.107 59.5469 152.914 59.5469C152.721 59.5469 152.562 59.5391 152.438 59.5234C152.312 59.513 152.211 59.4948 152.133 59.4688C152.06 59.4427 152.008 59.4115 151.977 59.375C151.945 59.3333 151.93 59.2865 151.93 59.2344V52.2656C151.93 52.2135 151.943 52.1693 151.969 52.1328C151.995 52.0911 152.042 52.0573 152.109 52.0312C152.177 52.0052 152.263 51.987 152.367 51.9766C152.477 51.9609 152.612 51.9531 152.773 51.9531C152.94 51.9531 153.078 51.9609 153.188 51.9766C153.297 51.987 153.38 52.0052 153.438 52.0312C153.5 52.0573 153.544 52.0911 153.57 52.1328C153.596 52.1693 153.609 52.2135 153.609 52.2656V53.0703C153.995 52.6536 154.385 52.3411 154.781 52.1328C155.182 51.9245 155.599 51.8203 156.031 51.8203C156.505 51.8203 156.904 51.8984 157.227 52.0547C157.555 52.2109 157.818 52.4245 158.016 52.6953C158.219 52.9609 158.365 53.2734 158.453 53.6328C158.542 53.9922 158.586 54.4245 158.586 54.9297V59.2344ZM166.805 52.75C166.805 53 166.776 53.1849 166.719 53.3047C166.661 53.4245 166.591 53.4844 166.508 53.4844H165.688C165.802 53.6094 165.883 53.7526 165.93 53.9141C165.982 54.0703 166.008 54.2344 166.008 54.4062C166.008 54.8125 165.94 55.1745 165.805 55.4922C165.669 55.8047 165.474 56.0703 165.219 56.2891C164.969 56.5026 164.664 56.6667 164.305 56.7812C163.951 56.8906 163.555 56.9453 163.117 56.9453C162.893 56.9453 162.68 56.9193 162.477 56.8672C162.273 56.8099 162.117 56.7448 162.008 56.6719C161.945 56.7396 161.888 56.8203 161.836 56.9141C161.789 57.0078 161.766 57.112 161.766 57.2266C161.766 57.3776 161.831 57.5026 161.961 57.6016C162.096 57.6953 162.284 57.7474 162.523 57.7578L164.219 57.8203C164.615 57.8359 164.966 57.8932 165.273 57.9922C165.586 58.0859 165.846 58.2214 166.055 58.3984C166.268 58.5703 166.43 58.7786 166.539 59.0234C166.654 59.2682 166.711 59.5469 166.711 59.8594C166.711 60.2031 166.635 60.526 166.484 60.8281C166.333 61.1354 166.107 61.401 165.805 61.625C165.503 61.849 165.122 62.026 164.664 62.1562C164.211 62.2865 163.68 62.3516 163.07 62.3516C162.477 62.3516 161.969 62.3047 161.547 62.2109C161.13 62.1172 160.786 61.987 160.516 61.8203C160.25 61.6536 160.055 61.4531 159.93 61.2188C159.81 60.9896 159.75 60.737 159.75 60.4609C159.75 60.2891 159.771 60.125 159.812 59.9688C159.859 59.8125 159.924 59.6615 160.008 59.5156C160.096 59.375 160.203 59.2396 160.328 59.1094C160.453 58.9792 160.596 58.8542 160.758 58.7344C160.534 58.6146 160.359 58.4531 160.234 58.25C160.115 58.0417 160.055 57.8151 160.055 57.5703C160.055 57.263 160.125 56.9844 160.266 56.7344C160.406 56.4792 160.589 56.25 160.812 56.0469C160.63 55.8646 160.484 55.6458 160.375 55.3906C160.266 55.1354 160.211 54.8177 160.211 54.4375C160.211 54.0312 160.281 53.6693 160.422 53.3516C160.568 53.0286 160.768 52.7578 161.023 52.5391C161.279 52.3151 161.583 52.1458 161.938 52.0312C162.292 51.9115 162.682 51.8516 163.109 51.8516C163.328 51.8516 163.536 51.8646 163.734 51.8906C163.938 51.9167 164.125 51.9531 164.297 52H166.508C166.596 52 166.667 52.0573 166.719 52.1719C166.776 52.2865 166.805 52.4792 166.805 52.75ZM164.281 54.3984C164.281 54.0234 164.177 53.7318 163.969 53.5234C163.76 53.3151 163.466 53.2109 163.086 53.2109C162.893 53.2109 162.724 53.2448 162.578 53.3125C162.432 53.375 162.31 53.4635 162.211 53.5781C162.117 53.6875 162.047 53.8177 162 53.9688C161.953 54.1146 161.93 54.2682 161.93 54.4297C161.93 54.7839 162.034 55.0651 162.242 55.2734C162.451 55.4766 162.74 55.5781 163.109 55.5781C163.307 55.5781 163.479 55.5469 163.625 55.4844C163.771 55.4219 163.891 55.3359 163.984 55.2266C164.083 55.1172 164.156 54.9922 164.203 54.8516C164.255 54.7057 164.281 54.5547 164.281 54.3984ZM164.742 59.9609C164.742 59.7266 164.648 59.5469 164.461 59.4219C164.273 59.2969 164.016 59.2292 163.688 59.2188L162.289 59.1797C162.154 59.2786 162.044 59.375 161.961 59.4688C161.883 59.5573 161.818 59.6432 161.766 59.7266C161.719 59.8099 161.688 59.8906 161.672 59.9688C161.656 60.0469 161.648 60.1276 161.648 60.2109C161.648 60.4714 161.779 60.6693 162.039 60.8047C162.305 60.9401 162.677 61.0078 163.156 61.0078C163.453 61.0078 163.703 60.9766 163.906 60.9141C164.109 60.8568 164.273 60.7786 164.398 60.6797C164.523 60.5807 164.612 60.4688 164.664 60.3438C164.716 60.224 164.742 60.0964 164.742 59.9609ZM175.867 58.5469C175.867 58.776 175.852 58.9531 175.82 59.0781C175.794 59.1979 175.758 59.2839 175.711 59.3359C175.664 59.3828 175.594 59.4271 175.5 59.4688C175.411 59.5052 175.305 59.5365 175.18 59.5625C175.06 59.5938 174.927 59.6172 174.781 59.6328C174.641 59.6484 174.497 59.6562 174.352 59.6562C173.961 59.6562 173.622 59.6068 173.336 59.5078C173.049 59.4089 172.812 59.2578 172.625 59.0547C172.438 58.8464 172.299 58.5859 172.211 58.2734C172.122 57.9609 172.078 57.5911 172.078 57.1641V53.5938H171.242C171.143 53.5938 171.068 53.5339 171.016 53.4141C170.964 53.2891 170.938 53.0833 170.938 52.7969C170.938 52.6458 170.943 52.5182 170.953 52.4141C170.969 52.3099 170.99 52.2292 171.016 52.1719C171.042 52.1094 171.073 52.0651 171.109 52.0391C171.151 52.013 171.198 52 171.25 52H172.078V50.4453C172.078 50.3932 172.091 50.3464 172.117 50.3047C172.148 50.263 172.201 50.2292 172.273 50.2031C172.352 50.1719 172.453 50.151 172.578 50.1406C172.708 50.125 172.867 50.1172 173.055 50.1172C173.247 50.1172 173.406 50.125 173.531 50.1406C173.661 50.151 173.763 50.1719 173.836 50.2031C173.909 50.2292 173.961 50.263 173.992 50.3047C174.023 50.3464 174.039 50.3932 174.039 50.4453V52H175.555C175.607 52 175.651 52.013 175.688 52.0391C175.729 52.0651 175.763 52.1094 175.789 52.1719C175.815 52.2292 175.833 52.3099 175.844 52.4141C175.859 52.5182 175.867 52.6458 175.867 52.7969C175.867 53.0833 175.841 53.2891 175.789 53.4141C175.737 53.5339 175.661 53.5938 175.562 53.5938H174.039V56.8672C174.039 57.2474 174.099 57.5339 174.219 57.7266C174.339 57.9141 174.552 58.0078 174.859 58.0078C174.964 58.0078 175.057 58 175.141 57.9844C175.224 57.9635 175.297 57.9427 175.359 57.9219C175.427 57.8958 175.482 57.875 175.523 57.8594C175.57 57.8385 175.612 57.8281 175.648 57.8281C175.68 57.8281 175.708 57.8385 175.734 57.8594C175.766 57.875 175.789 57.9115 175.805 57.9688C175.82 58.0208 175.833 58.0938 175.844 58.1875C175.859 58.2812 175.867 58.401 175.867 58.5469ZM183.07 59.2578C183.07 59.3307 183.044 59.388 182.992 59.4297C182.94 59.4714 182.857 59.5 182.742 59.5156C182.633 59.5365 182.469 59.5469 182.25 59.5469C182.016 59.5469 181.844 59.5365 181.734 59.5156C181.63 59.5 181.555 59.4714 181.508 59.4297C181.466 59.388 181.445 59.3307 181.445 59.2578V58.7031C181.159 59.0104 180.831 59.25 180.461 59.4219C180.096 59.5938 179.69 59.6797 179.242 59.6797C178.872 59.6797 178.531 59.6302 178.219 59.5312C177.911 59.4375 177.643 59.2969 177.414 59.1094C177.19 58.9167 177.016 58.6797 176.891 58.3984C176.766 58.1172 176.703 57.7891 176.703 57.4141C176.703 57.0078 176.781 56.6562 176.938 56.3594C177.099 56.0573 177.336 55.8099 177.648 55.6172C177.966 55.4193 178.359 55.2734 178.828 55.1797C179.297 55.0859 179.841 55.0391 180.461 55.0391H181.141V54.6172C181.141 54.3984 181.117 54.2083 181.07 54.0469C181.029 53.8802 180.956 53.7422 180.852 53.6328C180.753 53.5234 180.617 53.4427 180.445 53.3906C180.279 53.3385 180.07 53.3125 179.82 53.3125C179.492 53.3125 179.198 53.349 178.938 53.4219C178.682 53.4948 178.456 53.5755 178.258 53.6641C178.06 53.7526 177.893 53.8333 177.758 53.9062C177.628 53.9792 177.521 54.0156 177.438 54.0156C177.38 54.0156 177.328 53.9974 177.281 53.9609C177.24 53.9245 177.203 53.8724 177.172 53.8047C177.146 53.737 177.125 53.6536 177.109 53.5547C177.094 53.4557 177.086 53.3464 177.086 53.2266C177.086 53.0651 177.099 52.9375 177.125 52.8438C177.151 52.75 177.201 52.6667 177.273 52.5938C177.346 52.5156 177.474 52.4323 177.656 52.3438C177.839 52.25 178.052 52.1641 178.297 52.0859C178.542 52.0078 178.807 51.9453 179.094 51.8984C179.385 51.8464 179.685 51.8203 179.992 51.8203C180.539 51.8203 181.005 51.875 181.391 51.9844C181.781 52.0885 182.102 52.2526 182.352 52.4766C182.602 52.6953 182.784 52.9792 182.898 53.3281C183.013 53.6771 183.07 54.0911 183.07 54.5703V59.2578ZM181.141 56.2734H180.391C180.073 56.2734 179.802 56.2969 179.578 56.3438C179.354 56.3906 179.172 56.4609 179.031 56.5547C178.891 56.6484 178.786 56.763 178.719 56.8984C178.656 57.0286 178.625 57.1797 178.625 57.3516C178.625 57.6432 178.716 57.8724 178.898 58.0391C179.086 58.2057 179.344 58.2891 179.672 58.2891C179.948 58.2891 180.201 58.2188 180.43 58.0781C180.664 57.9375 180.901 57.7318 181.141 57.4609V56.2734ZM180.031 49.5938L179.219 50.7656C179.182 50.8229 179.148 50.8698 179.117 50.9062C179.086 50.9375 179.039 50.9635 178.977 50.9844C178.919 51.0052 178.841 51.0208 178.742 51.0312C178.648 51.0365 178.518 51.0391 178.352 51.0391C178.086 51.0391 177.898 51.026 177.789 51C177.68 50.9688 177.625 50.9167 177.625 50.8438C177.625 50.8021 177.638 50.7578 177.664 50.7109C177.695 50.6589 177.737 50.5964 177.789 50.5234L179.016 48.7812C179.052 48.7396 179.094 48.7031 179.141 48.6719C179.188 48.6406 179.247 48.6146 179.32 48.5938C179.398 48.5729 179.492 48.5573 179.602 48.5469C179.716 48.5365 179.857 48.5312 180.023 48.5312C180.346 48.5312 180.583 48.5495 180.734 48.5859C180.885 48.6172 180.99 48.6823 181.047 48.7812L182.281 50.5234C182.396 50.6693 182.453 50.776 182.453 50.8438C182.453 50.9167 182.396 50.9688 182.281 51C182.172 51.026 181.984 51.0391 181.719 51.0391C181.562 51.0391 181.435 51.0365 181.336 51.0312C181.242 51.0208 181.164 51.0078 181.102 50.9922C181.039 50.9714 180.99 50.9427 180.953 50.9062C180.917 50.8698 180.88 50.8229 180.844 50.7656L180.031 49.5938ZM178.133 49.0625C178.164 49.1094 178.188 49.151 178.203 49.1875C178.224 49.224 178.234 49.2578 178.234 49.2891C178.234 49.3464 178.188 49.3906 178.094 49.4219C178 49.4531 177.831 49.4688 177.586 49.4688C177.451 49.4688 177.339 49.4635 177.25 49.4531C177.161 49.4427 177.086 49.4271 177.023 49.4062C176.966 49.3854 176.917 49.3594 176.875 49.3281C176.839 49.2917 176.799 49.2474 176.758 49.1953L175.438 47.7188C175.391 47.6615 175.365 47.6068 175.359 47.5547C175.354 47.5026 175.383 47.4583 175.445 47.4219C175.503 47.3802 175.602 47.349 175.742 47.3281C175.878 47.3073 176.065 47.2969 176.305 47.2969C176.477 47.2969 176.615 47.3021 176.719 47.3125C176.823 47.3229 176.904 47.3411 176.961 47.3672C177.023 47.388 177.07 47.4193 177.102 47.4609C177.138 47.5026 177.174 47.5521 177.211 47.6094L178.133 49.0625ZM196.125 59.2344C196.125 59.2865 196.109 59.3333 196.078 59.375C196.047 59.4115 195.995 59.4427 195.922 59.4688C195.849 59.4948 195.75 59.513 195.625 59.5234C195.5 59.5391 195.341 59.5469 195.148 59.5469C194.951 59.5469 194.789 59.5391 194.664 59.5234C194.539 59.513 194.438 59.4948 194.359 59.4688C194.286 59.4427 194.234 59.4115 194.203 59.375C194.177 59.3333 194.164 59.2865 194.164 59.2344V55.1016C194.164 54.8672 194.141 54.6536 194.094 54.4609C194.052 54.2682 193.984 54.1042 193.891 53.9688C193.802 53.8281 193.688 53.7214 193.547 53.6484C193.411 53.5703 193.247 53.5312 193.055 53.5312C192.82 53.5312 192.583 53.6224 192.344 53.8047C192.104 53.987 191.844 54.2526 191.562 54.6016V59.2344C191.562 59.2865 191.547 59.3333 191.516 59.375C191.484 59.4115 191.43 59.4427 191.352 59.4688C191.279 59.4948 191.18 59.513 191.055 59.5234C190.93 59.5391 190.773 59.5469 190.586 59.5469C190.393 59.5469 190.234 59.5391 190.109 59.5234C189.984 59.513 189.883 59.4948 189.805 59.4688C189.732 59.4427 189.68 59.4115 189.648 59.375C189.617 59.3333 189.602 59.2865 189.602 59.2344V55.1016C189.602 54.8672 189.578 54.6536 189.531 54.4609C189.49 54.2682 189.424 54.1042 189.336 53.9688C189.247 53.8281 189.133 53.7214 188.992 53.6484C188.852 53.5703 188.688 53.5312 188.5 53.5312C188.26 53.5312 188.021 53.6224 187.781 53.8047C187.542 53.987 187.284 54.2526 187.008 54.6016V59.2344C187.008 59.2865 186.992 59.3333 186.961 59.375C186.93 59.4115 186.875 59.4427 186.797 59.4688C186.724 59.4948 186.625 59.513 186.5 59.5234C186.375 59.5391 186.216 59.5469 186.023 59.5469C185.831 59.5469 185.672 59.5391 185.547 59.5234C185.422 59.513 185.32 59.4948 185.242 59.4688C185.169 59.4427 185.117 59.4115 185.086 59.375C185.055 59.3333 185.039 59.2865 185.039 59.2344V52.2656C185.039 52.2135 185.052 52.1693 185.078 52.1328C185.104 52.0911 185.151 52.0573 185.219 52.0312C185.286 52.0052 185.372 51.987 185.477 51.9766C185.586 51.9609 185.721 51.9531 185.883 51.9531C186.049 51.9531 186.188 51.9609 186.297 51.9766C186.406 51.987 186.49 52.0052 186.547 52.0312C186.609 52.0573 186.654 52.0911 186.68 52.1328C186.706 52.1693 186.719 52.2135 186.719 52.2656V53.0703C187.104 52.6536 187.487 52.3411 187.867 52.1328C188.253 51.9245 188.654 51.8203 189.07 51.8203C189.357 51.8203 189.615 51.8516 189.844 51.9141C190.073 51.9714 190.276 52.0573 190.453 52.1719C190.635 52.2812 190.792 52.4141 190.922 52.5703C191.052 52.7266 191.161 52.901 191.25 53.0938C191.458 52.8698 191.661 52.6771 191.859 52.5156C192.062 52.3542 192.26 52.224 192.453 52.125C192.651 52.0208 192.846 51.9453 193.039 51.8984C193.237 51.8464 193.438 51.8203 193.641 51.8203C194.104 51.8203 194.495 51.8984 194.812 52.0547C195.13 52.2109 195.385 52.4245 195.578 52.6953C195.776 52.9609 195.917 53.2734 196 53.6328C196.083 53.9922 196.125 54.3724 196.125 54.7734V59.2344ZM208.289 59.2344C208.289 59.2917 208.276 59.3411 208.25 59.3828C208.224 59.4193 208.18 59.4505 208.117 59.4766C208.055 59.5026 207.969 59.5208 207.859 59.5312C207.755 59.5417 207.625 59.5469 207.469 59.5469C207.302 59.5469 207.167 59.5417 207.062 59.5312C206.958 59.5208 206.872 59.5026 206.805 59.4766C206.742 59.4505 206.695 59.4193 206.664 59.3828C206.638 59.3411 206.625 59.2917 206.625 59.2344V58.4609C206.266 58.8464 205.888 59.1458 205.492 59.3594C205.102 59.5729 204.667 59.6797 204.188 59.6797C203.656 59.6797 203.206 59.5781 202.836 59.375C202.471 59.1667 202.172 58.888 201.938 58.5391C201.708 58.1901 201.542 57.7839 201.438 57.3203C201.333 56.8516 201.281 56.3594 201.281 55.8438C201.281 55.224 201.346 54.6667 201.477 54.1719C201.612 53.6771 201.807 53.2552 202.062 52.9062C202.318 52.5573 202.635 52.2891 203.016 52.1016C203.396 51.9141 203.833 51.8203 204.328 51.8203C204.719 51.8203 205.073 51.901 205.391 52.0625C205.708 52.2188 206.023 52.4505 206.336 52.7578V48.9844C206.336 48.9323 206.349 48.8854 206.375 48.8438C206.406 48.8021 206.458 48.7682 206.531 48.7422C206.609 48.7109 206.711 48.6875 206.836 48.6719C206.961 48.6562 207.12 48.6484 207.312 48.6484C207.505 48.6484 207.664 48.6562 207.789 48.6719C207.914 48.6875 208.013 48.7109 208.086 48.7422C208.159 48.7682 208.211 48.8021 208.242 48.8438C208.273 48.8854 208.289 48.9323 208.289 48.9844V59.2344ZM206.336 54.5781C206.055 54.224 205.784 53.9531 205.523 53.7656C205.268 53.5781 205 53.4844 204.719 53.4844C204.464 53.4844 204.242 53.5495 204.055 53.6797C203.872 53.8047 203.724 53.974 203.609 54.1875C203.5 54.401 203.417 54.6406 203.359 54.9062C203.307 55.1667 203.281 55.4349 203.281 55.7109C203.281 56.0026 203.305 56.2865 203.352 56.5625C203.398 56.8385 203.474 57.0859 203.578 57.3047C203.688 57.5182 203.831 57.6901 204.008 57.8203C204.185 57.9505 204.409 58.0156 204.68 58.0156C204.815 58.0156 204.945 57.9974 205.07 57.9609C205.201 57.9193 205.331 57.8542 205.461 57.7656C205.596 57.6771 205.734 57.5625 205.875 57.4219C206.016 57.276 206.169 57.099 206.336 56.8906V54.5781ZM217.32 55.6797C217.32 56.2734 217.242 56.8151 217.086 57.3047C216.93 57.7943 216.693 58.2161 216.375 58.5703C216.057 58.9245 215.659 59.1979 215.18 59.3906C214.701 59.5833 214.141 59.6797 213.5 59.6797C212.88 59.6797 212.341 59.5938 211.883 59.4219C211.424 59.25 211.044 59 210.742 58.6719C210.44 58.3438 210.216 57.9401 210.07 57.4609C209.924 56.9818 209.852 56.4349 209.852 55.8203C209.852 55.2266 209.93 54.6849 210.086 54.1953C210.247 53.7005 210.487 53.2786 210.805 52.9297C211.122 52.5755 211.518 52.3021 211.992 52.1094C212.471 51.9167 213.031 51.8203 213.672 51.8203C214.297 51.8203 214.839 51.9062 215.297 52.0781C215.755 52.2448 216.133 52.4922 216.43 52.8203C216.732 53.1484 216.956 53.5521 217.102 54.0312C217.247 54.5104 217.32 55.0599 217.32 55.6797ZM215.297 55.7578C215.297 55.4141 215.268 55.099 215.211 54.8125C215.159 54.5208 215.068 54.2682 214.938 54.0547C214.807 53.8411 214.633 53.6745 214.414 53.5547C214.201 53.4349 213.93 53.375 213.602 53.375C213.31 53.375 213.055 53.4297 212.836 53.5391C212.617 53.6432 212.438 53.7995 212.297 54.0078C212.156 54.2109 212.049 54.4583 211.977 54.75C211.909 55.0365 211.875 55.3646 211.875 55.7344C211.875 56.0781 211.904 56.3958 211.961 56.6875C212.018 56.974 212.109 57.224 212.234 57.4375C212.365 57.651 212.539 57.8177 212.758 57.9375C212.977 58.0521 213.247 58.1094 213.57 58.1094C213.867 58.1094 214.125 58.0573 214.344 57.9531C214.562 57.8438 214.742 57.6875 214.883 57.4844C215.023 57.2812 215.128 57.0365 215.195 56.75C215.263 56.4583 215.297 56.1276 215.297 55.7578ZM224.82 59.2578C224.82 59.3307 224.794 59.388 224.742 59.4297C224.69 59.4714 224.607 59.5 224.492 59.5156C224.383 59.5365 224.219 59.5469 224 59.5469C223.766 59.5469 223.594 59.5365 223.484 59.5156C223.38 59.5 223.305 59.4714 223.258 59.4297C223.216 59.388 223.195 59.3307 223.195 59.2578V58.7031C222.909 59.0104 222.581 59.25 222.211 59.4219C221.846 59.5938 221.44 59.6797 220.992 59.6797C220.622 59.6797 220.281 59.6302 219.969 59.5312C219.661 59.4375 219.393 59.2969 219.164 59.1094C218.94 58.9167 218.766 58.6797 218.641 58.3984C218.516 58.1172 218.453 57.7891 218.453 57.4141C218.453 57.0078 218.531 56.6562 218.688 56.3594C218.849 56.0573 219.086 55.8099 219.398 55.6172C219.716 55.4193 220.109 55.2734 220.578 55.1797C221.047 55.0859 221.591 55.0391 222.211 55.0391H222.891V54.6172C222.891 54.3984 222.867 54.2083 222.82 54.0469C222.779 53.8802 222.706 53.7422 222.602 53.6328C222.503 53.5234 222.367 53.4427 222.195 53.3906C222.029 53.3385 221.82 53.3125 221.57 53.3125C221.242 53.3125 220.948 53.349 220.688 53.4219C220.432 53.4948 220.206 53.5755 220.008 53.6641C219.81 53.7526 219.643 53.8333 219.508 53.9062C219.378 53.9792 219.271 54.0156 219.188 54.0156C219.13 54.0156 219.078 53.9974 219.031 53.9609C218.99 53.9245 218.953 53.8724 218.922 53.8047C218.896 53.737 218.875 53.6536 218.859 53.5547C218.844 53.4557 218.836 53.3464 218.836 53.2266C218.836 53.0651 218.849 52.9375 218.875 52.8438C218.901 52.75 218.951 52.6667 219.023 52.5938C219.096 52.5156 219.224 52.4323 219.406 52.3438C219.589 52.25 219.802 52.1641 220.047 52.0859C220.292 52.0078 220.557 51.9453 220.844 51.8984C221.135 51.8464 221.435 51.8203 221.742 51.8203C222.289 51.8203 222.755 51.875 223.141 51.9844C223.531 52.0885 223.852 52.2526 224.102 52.4766C224.352 52.6953 224.534 52.9792 224.648 53.3281C224.763 53.6771 224.82 54.0911 224.82 54.5703V59.2578ZM222.891 56.2734H222.141C221.823 56.2734 221.552 56.2969 221.328 56.3438C221.104 56.3906 220.922 56.4609 220.781 56.5547C220.641 56.6484 220.536 56.763 220.469 56.8984C220.406 57.0286 220.375 57.1797 220.375 57.3516C220.375 57.6432 220.466 57.8724 220.648 58.0391C220.836 58.2057 221.094 58.2891 221.422 58.2891C221.698 58.2891 221.951 58.2188 222.18 58.0781C222.414 57.9375 222.651 57.7318 222.891 57.4609V56.2734ZM222.688 50.6328C222.734 50.7005 222.763 50.7604 222.773 50.8125C222.784 50.8646 222.766 50.9089 222.719 50.9453C222.677 50.9766 222.604 51 222.5 51.0156C222.401 51.0312 222.26 51.0391 222.078 51.0391C221.927 51.0391 221.802 51.0339 221.703 51.0234C221.604 51.013 221.521 50.9974 221.453 50.9766C221.385 50.9557 221.328 50.9297 221.281 50.8984C221.24 50.862 221.198 50.8177 221.156 50.7656L219.648 48.9531C219.596 48.8958 219.568 48.8411 219.562 48.7891C219.557 48.737 219.583 48.6927 219.641 48.6562C219.703 48.6146 219.805 48.5833 219.945 48.5625C220.086 48.5417 220.276 48.5312 220.516 48.5312C220.688 48.5312 220.831 48.5365 220.945 48.5469C221.065 48.5573 221.164 48.5755 221.242 48.6016C221.32 48.6224 221.383 48.6536 221.43 48.6953C221.482 48.737 221.529 48.7865 221.57 48.8438L222.688 50.6328ZM233.445 59.2344C233.445 59.2865 233.43 59.3333 233.398 59.375C233.367 59.4115 233.315 59.4427 233.242 59.4688C233.169 59.4948 233.068 59.513 232.938 59.5234C232.812 59.5391 232.656 59.5469 232.469 59.5469C232.276 59.5469 232.115 59.5391 231.984 59.5234C231.859 59.513 231.76 59.4948 231.688 59.4688C231.615 59.4427 231.562 59.4115 231.531 59.375C231.5 59.3333 231.484 59.2865 231.484 59.2344V55.2578C231.484 54.9193 231.458 54.6536 231.406 54.4609C231.359 54.2682 231.289 54.1042 231.195 53.9688C231.102 53.8281 230.979 53.7214 230.828 53.6484C230.682 53.5703 230.51 53.5312 230.312 53.5312C230.062 53.5312 229.81 53.6224 229.555 53.8047C229.299 53.987 229.034 54.2526 228.758 54.6016V59.2344C228.758 59.2865 228.742 59.3333 228.711 59.375C228.68 59.4115 228.625 59.4427 228.547 59.4688C228.474 59.4948 228.375 59.513 228.25 59.5234C228.125 59.5391 227.966 59.5469 227.773 59.5469C227.581 59.5469 227.422 59.5391 227.297 59.5234C227.172 59.513 227.07 59.4948 226.992 59.4688C226.919 59.4427 226.867 59.4115 226.836 59.375C226.805 59.3333 226.789 59.2865 226.789 59.2344V52.2656C226.789 52.2135 226.802 52.1693 226.828 52.1328C226.854 52.0911 226.901 52.0573 226.969 52.0312C227.036 52.0052 227.122 51.987 227.227 51.9766C227.336 51.9609 227.471 51.9531 227.633 51.9531C227.799 51.9531 227.938 51.9609 228.047 51.9766C228.156 51.987 228.24 52.0052 228.297 52.0312C228.359 52.0573 228.404 52.0911 228.43 52.1328C228.456 52.1693 228.469 52.2135 228.469 52.2656V53.0703C228.854 52.6536 229.245 52.3411 229.641 52.1328C230.042 51.9245 230.458 51.8203 230.891 51.8203C231.365 51.8203 231.763 51.8984 232.086 52.0547C232.414 52.2109 232.677 52.4245 232.875 52.6953C233.078 52.9609 233.224 53.2734 233.312 53.6328C233.401 53.9922 233.445 54.4245 233.445 54.9297V59.2344ZM242.039 59.2344C242.039 59.2865 242.023 59.3333 241.992 59.375C241.961 59.4115 241.909 59.4427 241.836 59.4688C241.763 59.4948 241.661 59.513 241.531 59.5234C241.406 59.5391 241.25 59.5469 241.062 59.5469C240.87 59.5469 240.708 59.5391 240.578 59.5234C240.453 59.513 240.354 59.4948 240.281 59.4688C240.208 59.4427 240.156 59.4115 240.125 59.375C240.094 59.3333 240.078 59.2865 240.078 59.2344V55.2578C240.078 54.9193 240.052 54.6536 240 54.4609C239.953 54.2682 239.883 54.1042 239.789 53.9688C239.695 53.8281 239.573 53.7214 239.422 53.6484C239.276 53.5703 239.104 53.5312 238.906 53.5312C238.656 53.5312 238.404 53.6224 238.148 53.8047C237.893 53.987 237.628 54.2526 237.352 54.6016V59.2344C237.352 59.2865 237.336 59.3333 237.305 59.375C237.273 59.4115 237.219 59.4427 237.141 59.4688C237.068 59.4948 236.969 59.513 236.844 59.5234C236.719 59.5391 236.56 59.5469 236.367 59.5469C236.174 59.5469 236.016 59.5391 235.891 59.5234C235.766 59.513 235.664 59.4948 235.586 59.4688C235.513 59.4427 235.461 59.4115 235.43 59.375C235.398 59.3333 235.383 59.2865 235.383 59.2344V48.9609C235.383 48.9089 235.398 48.862 235.43 48.8203C235.461 48.7786 235.513 48.7448 235.586 48.7188C235.664 48.6875 235.766 48.6641 235.891 48.6484C236.016 48.6328 236.174 48.625 236.367 48.625C236.56 48.625 236.719 48.6328 236.844 48.6484C236.969 48.6641 237.068 48.6875 237.141 48.7188C237.219 48.7448 237.273 48.7786 237.305 48.8203C237.336 48.862 237.352 48.9089 237.352 48.9609V52.8125C237.69 52.4792 238.034 52.2318 238.383 52.0703C238.737 51.9036 239.104 51.8203 239.484 51.8203C239.958 51.8203 240.357 51.8984 240.68 52.0547C241.008 52.2109 241.271 52.4245 241.469 52.6953C241.672 52.9661 241.818 53.2839 241.906 53.6484C241.995 54.0078 242.039 54.4453 242.039 54.9609V59.2344ZM254.258 59.2344C254.258 59.2865 254.242 59.3333 254.211 59.375C254.18 59.4115 254.128 59.4427 254.055 59.4688C253.982 59.4948 253.88 59.513 253.75 59.5234C253.625 59.5391 253.469 59.5469 253.281 59.5469C253.089 59.5469 252.927 59.5391 252.797 59.5234C252.672 59.513 252.573 59.4948 252.5 59.4688C252.427 59.4427 252.375 59.4115 252.344 59.375C252.312 59.3333 252.297 59.2865 252.297 59.2344V55.2578C252.297 54.9193 252.271 54.6536 252.219 54.4609C252.172 54.2682 252.102 54.1042 252.008 53.9688C251.914 53.8281 251.792 53.7214 251.641 53.6484C251.495 53.5703 251.323 53.5312 251.125 53.5312C250.875 53.5312 250.622 53.6224 250.367 53.8047C250.112 53.987 249.846 54.2526 249.57 54.6016V59.2344C249.57 59.2865 249.555 59.3333 249.523 59.375C249.492 59.4115 249.438 59.4427 249.359 59.4688C249.286 59.4948 249.188 59.513 249.062 59.5234C248.938 59.5391 248.779 59.5469 248.586 59.5469C248.393 59.5469 248.234 59.5391 248.109 59.5234C247.984 59.513 247.883 59.4948 247.805 59.4688C247.732 59.4427 247.68 59.4115 247.648 59.375C247.617 59.3333 247.602 59.2865 247.602 59.2344V52.2656C247.602 52.2135 247.615 52.1693 247.641 52.1328C247.667 52.0911 247.714 52.0573 247.781 52.0312C247.849 52.0052 247.935 51.987 248.039 51.9766C248.148 51.9609 248.284 51.9531 248.445 51.9531C248.612 51.9531 248.75 51.9609 248.859 51.9766C248.969 51.987 249.052 52.0052 249.109 52.0312C249.172 52.0573 249.216 52.0911 249.242 52.1328C249.268 52.1693 249.281 52.2135 249.281 52.2656V53.0703C249.667 52.6536 250.057 52.3411 250.453 52.1328C250.854 51.9245 251.271 51.8203 251.703 51.8203C252.177 51.8203 252.576 51.8984 252.898 52.0547C253.227 52.2109 253.49 52.4245 253.688 52.6953C253.891 52.9609 254.036 53.2734 254.125 53.6328C254.214 53.9922 254.258 54.4245 254.258 54.9297V59.2344ZM262.477 52.75C262.477 53 262.448 53.1849 262.391 53.3047C262.333 53.4245 262.263 53.4844 262.18 53.4844H261.359C261.474 53.6094 261.555 53.7526 261.602 53.9141C261.654 54.0703 261.68 54.2344 261.68 54.4062C261.68 54.8125 261.612 55.1745 261.477 55.4922C261.341 55.8047 261.146 56.0703 260.891 56.2891C260.641 56.5026 260.336 56.6667 259.977 56.7812C259.622 56.8906 259.227 56.9453 258.789 56.9453C258.565 56.9453 258.352 56.9193 258.148 56.8672C257.945 56.8099 257.789 56.7448 257.68 56.6719C257.617 56.7396 257.56 56.8203 257.508 56.9141C257.461 57.0078 257.438 57.112 257.438 57.2266C257.438 57.3776 257.503 57.5026 257.633 57.6016C257.768 57.6953 257.956 57.7474 258.195 57.7578L259.891 57.8203C260.286 57.8359 260.638 57.8932 260.945 57.9922C261.258 58.0859 261.518 58.2214 261.727 58.3984C261.94 58.5703 262.102 58.7786 262.211 59.0234C262.326 59.2682 262.383 59.5469 262.383 59.8594C262.383 60.2031 262.307 60.526 262.156 60.8281C262.005 61.1354 261.779 61.401 261.477 61.625C261.174 61.849 260.794 62.026 260.336 62.1562C259.883 62.2865 259.352 62.3516 258.742 62.3516C258.148 62.3516 257.641 62.3047 257.219 62.2109C256.802 62.1172 256.458 61.987 256.188 61.8203C255.922 61.6536 255.727 61.4531 255.602 61.2188C255.482 60.9896 255.422 60.737 255.422 60.4609C255.422 60.2891 255.443 60.125 255.484 59.9688C255.531 59.8125 255.596 59.6615 255.68 59.5156C255.768 59.375 255.875 59.2396 256 59.1094C256.125 58.9792 256.268 58.8542 256.43 58.7344C256.206 58.6146 256.031 58.4531 255.906 58.25C255.786 58.0417 255.727 57.8151 255.727 57.5703C255.727 57.263 255.797 56.9844 255.938 56.7344C256.078 56.4792 256.26 56.25 256.484 56.0469C256.302 55.8646 256.156 55.6458 256.047 55.3906C255.938 55.1354 255.883 54.8177 255.883 54.4375C255.883 54.0312 255.953 53.6693 256.094 53.3516C256.24 53.0286 256.44 52.7578 256.695 52.5391C256.951 52.3151 257.255 52.1458 257.609 52.0312C257.964 51.9115 258.354 51.8516 258.781 51.8516C259 51.8516 259.208 51.8646 259.406 51.8906C259.609 51.9167 259.797 51.9531 259.969 52H262.18C262.268 52 262.339 52.0573 262.391 52.1719C262.448 52.2865 262.477 52.4792 262.477 52.75ZM259.953 54.3984C259.953 54.0234 259.849 53.7318 259.641 53.5234C259.432 53.3151 259.138 53.2109 258.758 53.2109C258.565 53.2109 258.396 53.2448 258.25 53.3125C258.104 53.375 257.982 53.4635 257.883 53.5781C257.789 53.6875 257.719 53.8177 257.672 53.9688C257.625 54.1146 257.602 54.2682 257.602 54.4297C257.602 54.7839 257.706 55.0651 257.914 55.2734C258.122 55.4766 258.411 55.5781 258.781 55.5781C258.979 55.5781 259.151 55.5469 259.297 55.4844C259.443 55.4219 259.562 55.3359 259.656 55.2266C259.755 55.1172 259.828 54.9922 259.875 54.8516C259.927 54.7057 259.953 54.5547 259.953 54.3984ZM260.414 59.9609C260.414 59.7266 260.32 59.5469 260.133 59.4219C259.945 59.2969 259.688 59.2292 259.359 59.2188L257.961 59.1797C257.826 59.2786 257.716 59.375 257.633 59.4688C257.555 59.5573 257.49 59.6432 257.438 59.7266C257.391 59.8099 257.359 59.8906 257.344 59.9688C257.328 60.0469 257.32 60.1276 257.32 60.2109C257.32 60.4714 257.451 60.6693 257.711 60.8047C257.977 60.9401 258.349 61.0078 258.828 61.0078C259.125 61.0078 259.375 60.9766 259.578 60.9141C259.781 60.8568 259.945 60.7786 260.07 60.6797C260.195 60.5807 260.284 60.4688 260.336 60.3438C260.388 60.224 260.414 60.0964 260.414 59.9609ZM270.445 59.2344C270.445 59.2865 270.43 59.3333 270.398 59.375C270.367 59.4115 270.315 59.4427 270.242 59.4688C270.169 59.4948 270.068 59.513 269.938 59.5234C269.812 59.5391 269.656 59.5469 269.469 59.5469C269.276 59.5469 269.115 59.5391 268.984 59.5234C268.859 59.513 268.76 59.4948 268.688 59.4688C268.615 59.4427 268.562 59.4115 268.531 59.375C268.5 59.3333 268.484 59.2865 268.484 59.2344V55.2578C268.484 54.9193 268.458 54.6536 268.406 54.4609C268.359 54.2682 268.289 54.1042 268.195 53.9688C268.102 53.8281 267.979 53.7214 267.828 53.6484C267.682 53.5703 267.51 53.5312 267.312 53.5312C267.062 53.5312 266.81 53.6224 266.555 53.8047C266.299 53.987 266.034 54.2526 265.758 54.6016V59.2344C265.758 59.2865 265.742 59.3333 265.711 59.375C265.68 59.4115 265.625 59.4427 265.547 59.4688C265.474 59.4948 265.375 59.513 265.25 59.5234C265.125 59.5391 264.966 59.5469 264.773 59.5469C264.581 59.5469 264.422 59.5391 264.297 59.5234C264.172 59.513 264.07 59.4948 263.992 59.4688C263.919 59.4427 263.867 59.4115 263.836 59.375C263.805 59.3333 263.789 59.2865 263.789 59.2344V48.9609C263.789 48.9089 263.805 48.862 263.836 48.8203C263.867 48.7786 263.919 48.7448 263.992 48.7188C264.07 48.6875 264.172 48.6641 264.297 48.6484C264.422 48.6328 264.581 48.625 264.773 48.625C264.966 48.625 265.125 48.6328 265.25 48.6484C265.375 48.6641 265.474 48.6875 265.547 48.7188C265.625 48.7448 265.68 48.7786 265.711 48.8203C265.742 48.862 265.758 48.9089 265.758 48.9609V52.8125C266.096 52.4792 266.44 52.2318 266.789 52.0703C267.143 51.9036 267.51 51.8203 267.891 51.8203C268.365 51.8203 268.763 51.8984 269.086 52.0547C269.414 52.2109 269.677 52.4245 269.875 52.6953C270.078 52.9661 270.224 53.2839 270.312 53.6484C270.401 54.0078 270.445 54.4453 270.445 54.9609V59.2344ZM274.352 59.2344C274.352 59.2865 274.336 59.3333 274.305 59.375C274.273 59.4115 274.219 59.4427 274.141 59.4688C274.068 59.4948 273.969 59.513 273.844 59.5234C273.719 59.5391 273.56 59.5469 273.367 59.5469C273.174 59.5469 273.016 59.5391 272.891 59.5234C272.766 59.513 272.664 59.4948 272.586 59.4688C272.513 59.4427 272.461 59.4115 272.43 59.375C272.398 59.3333 272.383 59.2865 272.383 59.2344V52.2812C272.383 52.2292 272.398 52.1849 272.43 52.1484C272.461 52.1068 272.513 52.0729 272.586 52.0469C272.664 52.0156 272.766 51.9922 272.891 51.9766C273.016 51.9609 273.174 51.9531 273.367 51.9531C273.56 51.9531 273.719 51.9609 273.844 51.9766C273.969 51.9922 274.068 52.0156 274.141 52.0469C274.219 52.0729 274.273 52.1068 274.305 52.1484C274.336 52.1849 274.352 52.2292 274.352 52.2812V59.2344ZM274.5 49.9062C274.5 50.3021 274.419 50.5755 274.258 50.7266C274.096 50.8776 273.797 50.9531 273.359 50.9531C272.917 50.9531 272.617 50.8802 272.461 50.7344C272.31 50.5885 272.234 50.3255 272.234 49.9453C272.234 49.5495 272.312 49.276 272.469 49.125C272.63 48.9688 272.932 48.8906 273.375 48.8906C273.812 48.8906 274.109 48.9661 274.266 49.1172C274.422 49.263 274.5 49.526 274.5 49.9062ZM282.758 55.5469C282.758 55.7865 282.703 55.9635 282.594 56.0781C282.49 56.1927 282.344 56.25 282.156 56.25H277.914C277.914 56.5469 277.948 56.8177 278.016 57.0625C278.089 57.3021 278.201 57.5078 278.352 57.6797C278.508 57.8464 278.706 57.974 278.945 58.0625C279.19 58.151 279.482 58.1953 279.82 58.1953C280.164 58.1953 280.466 58.1719 280.727 58.125C280.987 58.0729 281.211 58.0182 281.398 57.9609C281.591 57.8984 281.75 57.8438 281.875 57.7969C282 57.7448 282.102 57.7188 282.18 57.7188C282.227 57.7188 282.266 57.7292 282.297 57.75C282.328 57.7656 282.354 57.7969 282.375 57.8438C282.396 57.8906 282.409 57.9583 282.414 58.0469C282.424 58.1302 282.43 58.237 282.43 58.3672C282.43 58.4818 282.427 58.5807 282.422 58.6641C282.417 58.7422 282.409 58.8099 282.398 58.8672C282.388 58.9245 282.372 58.974 282.352 59.0156C282.331 59.0521 282.302 59.0885 282.266 59.125C282.234 59.1615 282.143 59.2109 281.992 59.2734C281.841 59.3359 281.648 59.3984 281.414 59.4609C281.18 59.5182 280.911 59.5677 280.609 59.6094C280.307 59.6562 279.984 59.6797 279.641 59.6797C279.021 59.6797 278.477 59.6016 278.008 59.4453C277.544 59.2891 277.156 59.0521 276.844 58.7344C276.531 58.4167 276.297 58.0156 276.141 57.5312C275.99 57.0469 275.914 56.4792 275.914 55.8281C275.914 55.2083 275.995 54.651 276.156 54.1562C276.318 53.6562 276.552 53.2344 276.859 52.8906C277.167 52.5417 277.539 52.276 277.977 52.0938C278.419 51.9115 278.917 51.8203 279.469 51.8203C280.052 51.8203 280.549 51.9062 280.961 52.0781C281.378 52.25 281.719 52.4896 281.984 52.7969C282.25 53.099 282.445 53.4583 282.57 53.875C282.695 54.2917 282.758 54.7448 282.758 55.2344V55.5469ZM280.852 54.9844C280.867 54.4323 280.755 54 280.516 53.6875C280.281 53.3698 279.917 53.2109 279.422 53.2109C279.172 53.2109 278.953 53.2578 278.766 53.3516C278.583 53.4453 278.43 53.5729 278.305 53.7344C278.185 53.8906 278.091 54.0781 278.023 54.2969C277.961 54.5104 277.924 54.7396 277.914 54.9844H280.852ZM278.641 50.7656C278.604 50.8229 278.568 50.8698 278.531 50.9062C278.495 50.9427 278.445 50.9714 278.383 50.9922C278.32 51.0078 278.24 51.0208 278.141 51.0312C278.047 51.0365 277.922 51.0391 277.766 51.0391C277.557 51.0391 277.396 51.0312 277.281 51.0156C277.172 50.9948 277.099 50.9661 277.062 50.9297C277.026 50.888 277.021 50.8333 277.047 50.7656C277.078 50.6979 277.13 50.6172 277.203 50.5234L278.438 48.7812C278.469 48.7292 278.508 48.6901 278.555 48.6641C278.607 48.6328 278.672 48.6068 278.75 48.5859C278.833 48.5651 278.932 48.5521 279.047 48.5469C279.161 48.5365 279.299 48.5312 279.461 48.5312C279.628 48.5312 279.766 48.5365 279.875 48.5469C279.99 48.5573 280.083 48.5729 280.156 48.5938C280.234 48.6146 280.297 48.6406 280.344 48.6719C280.391 48.7031 280.432 48.7396 280.469 48.7812L281.695 50.5234C281.768 50.6224 281.818 50.7057 281.844 50.7734C281.87 50.8359 281.865 50.888 281.828 50.9297C281.792 50.9661 281.716 50.9948 281.602 51.0156C281.492 51.0312 281.336 51.0391 281.133 51.0391C280.966 51.0391 280.833 51.0365 280.734 51.0312C280.641 51.0208 280.562 51.0052 280.5 50.9844C280.443 50.9635 280.398 50.9375 280.367 50.9062C280.336 50.8698 280.302 50.8229 280.266 50.7656L279.453 49.5938L278.641 50.7656ZM280.664 61.1094C280.664 61.2969 280.646 61.4531 280.609 61.5781C280.578 61.7083 280.521 61.8125 280.438 61.8906C280.354 61.9688 280.242 62.0234 280.102 62.0547C279.961 62.0911 279.786 62.1094 279.578 62.1094C279.37 62.1094 279.195 62.0911 279.055 62.0547C278.919 62.0234 278.81 61.9688 278.727 61.8906C278.643 61.8177 278.583 61.7188 278.547 61.5938C278.516 61.474 278.5 61.3255 278.5 61.1484C278.5 60.9609 278.518 60.8021 278.555 60.6719C278.591 60.5469 278.651 60.4453 278.734 60.3672C278.818 60.2891 278.93 60.2318 279.07 60.1953C279.211 60.1641 279.385 60.1484 279.594 60.1484C279.802 60.1484 279.974 60.1641 280.109 60.1953C280.25 60.2318 280.359 60.2865 280.438 60.3594C280.521 60.4375 280.578 60.5365 280.609 60.6562C280.646 60.7812 280.664 60.9323 280.664 61.1094ZM291.398 55.6484C291.398 56.2682 291.331 56.8281 291.195 57.3281C291.065 57.8229 290.872 58.2448 290.617 58.5938C290.362 58.9427 290.044 59.2109 289.664 59.3984C289.284 59.5859 288.849 59.6797 288.359 59.6797C288.156 59.6797 287.969 59.6589 287.797 59.6172C287.63 59.5807 287.466 59.5234 287.305 59.4453C287.148 59.362 286.992 59.2604 286.836 59.1406C286.68 59.0208 286.518 58.8802 286.352 58.7188V62C286.352 62.0521 286.336 62.099 286.305 62.1406C286.273 62.1823 286.219 62.2161 286.141 62.2422C286.068 62.2734 285.969 62.2969 285.844 62.3125C285.719 62.3281 285.56 62.3359 285.367 62.3359C285.174 62.3359 285.016 62.3281 284.891 62.3125C284.766 62.2969 284.664 62.2734 284.586 62.2422C284.513 62.2161 284.461 62.1823 284.43 62.1406C284.398 62.099 284.383 62.0521 284.383 62V52.2656C284.383 52.2135 284.396 52.1693 284.422 52.1328C284.448 52.0911 284.492 52.0573 284.555 52.0312C284.622 52.0052 284.708 51.987 284.812 51.9766C284.922 51.9609 285.057 51.9531 285.219 51.9531C285.375 51.9531 285.505 51.9609 285.609 51.9766C285.719 51.987 285.805 52.0052 285.867 52.0312C285.935 52.0573 285.982 52.0911 286.008 52.1328C286.034 52.1693 286.047 52.2135 286.047 52.2656V53.0859C286.25 52.8776 286.448 52.6953 286.641 52.5391C286.839 52.3776 287.039 52.2448 287.242 52.1406C287.445 52.0312 287.654 51.9505 287.867 51.8984C288.086 51.8464 288.318 51.8203 288.562 51.8203C289.073 51.8203 289.508 51.9219 289.867 52.125C290.227 52.3229 290.518 52.5964 290.742 52.9453C290.971 53.2943 291.138 53.7005 291.242 54.1641C291.346 54.6276 291.398 55.1224 291.398 55.6484ZM289.352 55.7891C289.352 55.4922 289.328 55.2083 289.281 54.9375C289.24 54.6615 289.164 54.4167 289.055 54.2031C288.951 53.9896 288.81 53.8203 288.633 53.6953C288.461 53.5651 288.245 53.5 287.984 53.5C287.854 53.5 287.724 53.5208 287.594 53.5625C287.469 53.599 287.339 53.6615 287.203 53.75C287.073 53.8385 286.938 53.9531 286.797 54.0938C286.656 54.2344 286.508 54.4089 286.352 54.6172V56.9141C286.628 57.263 286.891 57.5339 287.141 57.7266C287.391 57.9141 287.651 58.0078 287.922 58.0078C288.177 58.0078 288.393 57.9427 288.57 57.8125C288.753 57.6823 288.901 57.513 289.016 57.3047C289.13 57.0911 289.214 56.8516 289.266 56.5859C289.323 56.3203 289.352 56.0547 289.352 55.7891Z" fill="#D9D9D9"/>
<defs>
<linearGradient id="paint0_linear_4788_5814" x1="0" y1="28" x2="122" y2="28" gradientUnits="userSpaceOnUse">
<stop stop-color="#FDB913"/>
<stop offset="1" stop-color="#F15A22"/>
</linearGradient>
</defs>
</svg>
