<svg width="24" height="25" viewBox="0 0 24 25" fill="none" xmlns="http://www.w3.org/2000/svg">
<path d="M8.67989 11.0432H5.3199C4.3899 11.0432 3.63989 10.2932 3.63989 9.36322V6.00323C3.63989 5.07323 4.3899 4.32324 5.3199 4.32324H8.67989C9.60989 4.32324 10.3599 5.07323 10.3599 6.00323V9.36322C10.3599 10.2932 9.60989 11.0432 8.67989 11.0432Z" stroke="#262727" stroke-width="1.5" stroke-linecap="round" stroke-linejoin="round"/>
<path d="M18.6799 11.0432H15.3199C14.3899 11.0432 13.6399 10.2932 13.6399 9.36322V6.00323C13.6399 5.07323 14.3899 4.32324 15.3199 4.32324H18.6799C19.6099 4.32324 20.3599 5.07323 20.3599 6.00323V9.36322C20.3599 10.2932 19.6099 11.0432 18.6799 11.0432Z" stroke="#262727" stroke-width="1.5" stroke-linecap="round" stroke-linejoin="round"/>
<path d="M8.67989 21.0432H5.3199C4.3899 21.0432 3.63989 20.2932 3.63989 19.3632V16.0032C3.63989 15.0732 4.3899 14.3232 5.3199 14.3232H8.67989C9.60989 14.3232 10.3599 15.0732 10.3599 16.0032V19.3632C10.3599 20.2932 9.60989 21.0432 8.67989 21.0432Z" stroke="#262727" stroke-width="1.5" stroke-linecap="round" stroke-linejoin="round"/>
<path d="M18.6799 21.0432H15.3199C14.3899 21.0432 13.6399 20.2932 13.6399 19.3632V16.0032C13.6399 15.0732 14.3899 14.3232 15.3199 14.3232H18.6799C19.6099 14.3232 20.3599 15.0732 20.3599 16.0032V19.3632C20.3599 20.2932 19.6099 21.0432 18.6799 21.0432Z" stroke="#262727" stroke-width="1.5" stroke-linecap="round" stroke-linejoin="round"/>
</svg>
