<svg width="24" height="25" viewBox="0 0 24 25" fill="none" xmlns="http://www.w3.org/2000/svg">
<path d="M2.75 8.58311V6.51311C2.75 4.80311 4.12999 3.43311 5.82999 3.43311H18.16C19.87 3.43311 21.24 4.81311 21.24 6.51311V8.58311" stroke="#262727" stroke-width="1.5" stroke-linecap="round" stroke-linejoin="round"/>
<path d="M6.88281 15.6187C6.58984 15.6187 6.39844 15.4312 6.39844 15.1069V11.814C6.39844 11.4976 6.58984 11.3179 6.86328 11.3179C7.13672 11.3179 7.33203 11.4976 7.33203 11.814V12.1187H7.35156C7.53125 11.6382 7.96875 11.3218 8.53125 11.3218C9.11719 11.3218 9.53516 11.6226 9.6875 12.1538H9.71094C9.91016 11.6421 10.4023 11.3218 11 11.3218C11.8164 11.3218 12.3516 11.8726 12.3516 12.7007V15.1069C12.3516 15.4312 12.1562 15.6187 11.8672 15.6187C11.5742 15.6187 11.3789 15.4312 11.3789 15.1069V12.939C11.3789 12.4312 11.1133 12.1421 10.6367 12.1421C10.168 12.1421 9.84766 12.4858 9.84766 12.9819V15.1069C9.84766 15.4312 9.66406 15.6187 9.375 15.6187C9.08203 15.6187 8.90234 15.4312 8.90234 15.1069V12.8882C8.90234 12.4272 8.62109 12.1421 8.16797 12.1421C7.69922 12.1421 7.37109 12.5054 7.37109 13.0054V15.1069C7.37109 15.4312 7.17188 15.6187 6.88281 15.6187Z" fill="#262727"/>
<path d="M13.6172 15.5405C13.3047 15.5405 13.1406 15.3687 13.1406 15.1147C13.1406 14.9194 13.207 14.8022 13.4219 14.5991L15.1445 12.8921C15.8633 12.1812 16.043 11.896 16.043 11.4663C16.043 10.9624 15.6562 10.5991 15.1133 10.5991C14.6055 10.5991 14.25 10.8569 14.0508 11.3647C13.9492 11.5679 13.832 11.6733 13.6016 11.6733C13.3281 11.6733 13.1641 11.5054 13.1641 11.2554C13.1641 11.1812 13.1758 11.1108 13.1953 11.0444C13.3477 10.4351 14.0234 9.79053 15.1211 9.79053C16.25 9.79053 17.0273 10.4585 17.0273 11.4038C17.0273 12.064 16.7109 12.5093 15.7773 13.4233L14.4844 14.6968V14.7163H16.7344C17 14.7163 17.1641 14.8804 17.1641 15.1304C17.1641 15.3765 17 15.5405 16.7344 15.5405H13.6172Z" fill="#262727"/>
<path d="M21.25 16.7632V18.8532C21.25 20.5632 19.87 21.9332 18.17 21.9332H5.84C4.13 21.9332 2.76001 20.5532 2.76001 18.8532V16.7832" stroke="#262727" stroke-width="1.5" stroke-linecap="round" stroke-linejoin="round"/>
</svg>
