<svg width="20" height="16" viewBox="0 0 20 16" fill="none" xmlns="http://www.w3.org/2000/svg">
<path d="M16.85 15.2559H3.15C1.83 15.2559 0.75 14.1859 0.75 12.8559V3.65586C0.75 2.33586 1.82 1.25586 3.15 1.25586H16.85C18.17 1.25586 19.25 2.32586 19.25 3.65586V12.8559C19.25 14.1859 18.18 15.2559 16.85 15.2559Z" stroke="#4A4D4F" stroke-width="1.5" stroke-linecap="round" stroke-linejoin="round"/>
<path d="M16.85 15.2559H3.15C1.83 15.2559 0.75 14.1859 0.75 12.8559V3.65586C0.75 2.33586 1.82 1.25586 3.15 1.25586H16.85C18.17 1.25586 19.25 2.32586 19.25 3.65586V12.8559C19.25 14.1859 18.18 15.2559 16.85 15.2559Z" stroke="black" stroke-opacity="0.2" stroke-width="1.5" stroke-linecap="round" stroke-linejoin="round"/>
<path d="M18.22 2.02539L11.35 8.84539C10.58 9.61539 9.42002 9.61539 8.64002 8.84539L1.77002 2.02539" stroke="#4A4D4F" stroke-width="1.5" stroke-linecap="round" stroke-linejoin="round"/>
<path d="M18.22 2.02539L11.35 8.84539C10.58 9.61539 9.42002 9.61539 8.64002 8.84539L1.77002 2.02539" stroke="black" stroke-opacity="0.2" stroke-width="1.5" stroke-linecap="round" stroke-linejoin="round"/>
<path d="M12.1299 8.17578L18.2199 14.0858" stroke="#4A4D4F" stroke-width="1.5" stroke-linecap="round" stroke-linejoin="round"/>
<path d="M12.1299 8.17578L18.2199 14.0858" stroke="black" stroke-opacity="0.2" stroke-width="1.5" stroke-linecap="round" stroke-linejoin="round"/>
<path d="M1.77979 14.0859L7.93979 8.25586" stroke="#4A4D4F" stroke-width="1.5" stroke-linecap="round" stroke-linejoin="round"/>
<path d="M1.77979 14.0859L7.93979 8.25586" stroke="black" stroke-opacity="0.2" stroke-width="1.5" stroke-linecap="round" stroke-linejoin="round"/>
</svg>
