<svg width="28" height="29" viewBox="0 0 28 29" fill="none" xmlns="http://www.w3.org/2000/svg">
<path d="M28 2.43285V26.3152C28 26.8612 27.7831 27.3849 27.397 27.771C27.0109 28.1571 26.4872 28.374 25.9412 28.374H2.05882C1.51279 28.374 0.98912 28.1571 0.603015 27.771C0.216911 27.3849 0 26.8612 0 26.3152L0 2.43285C0 1.88681 0.216911 1.36314 0.603015 0.977039C0.98912 0.590935 1.51279 0.374023 2.05882 0.374023L25.9412 0.374023C26.4872 0.374023 27.0109 0.590935 27.397 0.977039C27.7831 1.36314 28 1.88681 28 2.43285ZM8.23529 11.0799H4.11765V24.2564H8.23529V11.0799ZM8.60588 6.55049C8.60805 6.23903 8.54885 5.93018 8.43166 5.6416C8.31447 5.35301 8.14158 5.09033 7.92287 4.86856C7.70416 4.64679 7.44391 4.47027 7.15698 4.34909C6.87005 4.2279 6.56206 4.16441 6.25059 4.16226H6.17647C5.54307 4.16226 4.93561 4.41388 4.48773 4.86176C4.03985 5.30964 3.78824 5.91709 3.78824 6.55049C3.78824 7.18389 4.03985 7.79135 4.48773 8.23923C4.93561 8.68711 5.54307 8.93873 6.17647 8.93873C6.48796 8.94639 6.7979 8.8926 7.0886 8.78044C7.37929 8.66827 7.64504 8.49993 7.87065 8.28503C8.09626 8.07013 8.27731 7.81287 8.40347 7.52797C8.52962 7.24307 8.5984 6.9361 8.60588 6.62461V6.55049ZM23.8824 16.2517C23.8824 12.2905 21.3624 10.7505 18.8588 10.7505C18.0391 10.7094 17.223 10.884 16.4918 11.2569C15.7606 11.6297 15.14 12.1877 14.6918 12.8752H14.5765V11.0799H10.7059V24.2564H14.8235V17.2481C14.764 16.5304 14.9901 15.8181 15.4527 15.2661C15.9153 14.7141 16.577 14.3669 17.2941 14.2999H17.4506C18.76 14.2999 19.7318 15.1234 19.7318 17.1987V24.2564H23.8494L23.8824 16.2517Z" fill="#636669"/>
</svg>
