<svg width="24" height="24" viewBox="0 0 24 24" fill="none" xmlns="http://www.w3.org/2000/svg">
<path d="M8.68013 10.3596H5.32014C4.39014 10.3596 3.64014 9.60963 3.64014 8.67963V5.31964C3.64014 4.38964 4.39014 3.63965 5.32014 3.63965H8.68013C9.61013 3.63965 10.3601 4.38964 10.3601 5.31964V8.67963C10.3601 9.60963 9.61013 10.3596 8.68013 10.3596Z" stroke="#F7F7F7" stroke-width="1.5" stroke-linecap="round" stroke-linejoin="round"/>
<path d="M18.6801 10.3596H15.3201C14.3901 10.3596 13.6401 9.60963 13.6401 8.67963V5.31964C13.6401 4.38964 14.3901 3.63965 15.3201 3.63965H18.6801C19.6101 3.63965 20.3601 4.38964 20.3601 5.31964V8.67963C20.3601 9.60963 19.6101 10.3596 18.6801 10.3596Z" stroke="#F7F7F7" stroke-width="1.5" stroke-linecap="round" stroke-linejoin="round"/>
<path d="M8.68013 20.3596H5.32014C4.39014 20.3596 3.64014 19.6096 3.64014 18.6796V15.3196C3.64014 14.3896 4.39014 13.6396 5.32014 13.6396H8.68013C9.61013 13.6396 10.3601 14.3896 10.3601 15.3196V18.6796C10.3601 19.6096 9.61013 20.3596 8.68013 20.3596Z" stroke="#F7F7F7" stroke-width="1.5" stroke-linecap="round" stroke-linejoin="round"/>
<path d="M18.6801 20.3596H15.3201C14.3901 20.3596 13.6401 19.6096 13.6401 18.6796V15.3196C13.6401 14.3896 14.3901 13.6396 15.3201 13.6396H18.6801C19.6101 13.6396 20.3601 14.3896 20.3601 15.3196V18.6796C20.3601 19.6096 19.6101 20.3596 18.6801 20.3596Z" stroke="#F7F7F7" stroke-width="1.5" stroke-linecap="round" stroke-linejoin="round"/>
</svg>
