<svg width="24" height="24" viewBox="0 0 24 24" fill="none" xmlns="http://www.w3.org/2000/svg">
<path d="M16.5498 8.95992C16.1298 8.95992 15.8398 8.95992 15.8398 8.95992C16.4198 7.17992 17.0598 4.30988 15.0698 3.16988C14.5298 2.85988 12.9098 2.36988 12.6798 3.28988C12.3598 4.54988 12.0498 5.80988 11.2998 6.91988C10.6798 7.82988 9.73982 8.83992 8.56982 8.95992C8.56982 9.00992 8.56982 9.06991 8.56982 9.06991V18.3199C8.56982 18.3199 8.56982 18.5699 8.56982 18.8199C8.68982 18.8599 8.80982 18.8999 8.80982 18.8999L10.9098 19.5899C11.5998 19.8199 12.3198 19.9399 13.0498 19.9399H18.1798C19.1998 19.9399 20.0298 19.1199 20.0298 18.1099C20.0298 17.8699 19.9798 17.6499 19.8898 17.4399C20.6798 17.2199 21.2498 16.5099 21.2498 15.6699C21.2498 15.1999 21.0798 14.7699 20.7798 14.4399C21.0698 14.1199 21.2498 13.6899 21.2498 13.2299C21.2498 12.7599 21.0798 12.3299 20.7798 11.9999C21.0698 11.6799 21.2498 11.2499 21.2498 10.7899C21.2498 9.77988 20.4198 8.95992 19.4098 8.95992C19.4098 8.95992 17.5898 8.95992 16.5498 8.95992Z" stroke="#F7F7F7" stroke-width="1.5" stroke-linecap="round" stroke-linejoin="round"/>
<path d="M2.75 7.37988H6.24C7.52 7.37988 8.56 8.41989 8.56 9.69989V18.9399C8.56 20.2199 7.52 21.2599 6.24 21.2599H2.75V7.37988Z" stroke="#F7F7F7" stroke-width="1.5" stroke-linecap="round" stroke-linejoin="round"/>
<path d="M5.65989 18.7397C6.09067 18.7397 6.43989 18.3905 6.43989 17.9597C6.43989 17.5289 6.09067 17.1797 5.65989 17.1797C5.22911 17.1797 4.87988 17.5289 4.87988 17.9597C4.87988 18.3905 5.22911 18.7397 5.65989 18.7397Z" fill="#F7F7F7"/>
</svg>
