<svg width="24" height="25" viewBox="0 0 24 25" fill="none" xmlns="http://www.w3.org/2000/svg">
<path d="M16.5501 9.64303C16.1301 9.64303 15.8401 9.64303 15.8401 9.64303C16.4201 7.86303 17.0601 4.99299 15.0701 3.85299C14.5301 3.54299 12.9101 3.05298 12.6801 3.97298C12.3601 5.23298 12.0501 6.49299 11.3001 7.60299C10.6801 8.51299 9.74007 9.52303 8.57007 9.64303C8.57007 9.69303 8.57007 9.75301 8.57007 9.75301V19.003C8.57007 19.003 8.57007 19.253 8.57007 19.503C8.69007 19.543 8.81007 19.583 8.81007 19.583L10.9101 20.273C11.6001 20.503 12.3201 20.623 13.0501 20.623H18.1801C19.2001 20.623 20.0301 19.803 20.0301 18.793C20.0301 18.553 19.9801 18.333 19.8901 18.123C20.6801 17.903 21.2501 17.193 21.2501 16.353C21.2501 15.883 21.0801 15.453 20.7801 15.123C21.0701 14.803 21.2501 14.373 21.2501 13.913C21.2501 13.443 21.0801 13.013 20.7801 12.683C21.0701 12.363 21.2501 11.933 21.2501 11.473C21.2501 10.463 20.4201 9.64303 19.4101 9.64303C19.4101 9.64303 17.5901 9.64303 16.5501 9.64303Z" stroke="#262727" stroke-width="1.5" stroke-linecap="round" stroke-linejoin="round"/>
<path d="M2.75 8.06299H6.24C7.52 8.06299 8.56 9.103 8.56 10.383V19.623C8.56 20.903 7.52 21.943 6.24 21.943H2.75V8.06299Z" stroke="#262727" stroke-width="1.5" stroke-linecap="round" stroke-linejoin="round"/>
<path d="M5.65989 19.4228C6.09067 19.4228 6.43989 19.0736 6.43989 18.6428C6.43989 18.212 6.09067 17.8628 5.65989 17.8628C5.22911 17.8628 4.87988 18.212 4.87988 18.6428C4.87988 19.0736 5.22911 19.4228 5.65989 19.4228Z" fill="#262727"/>
</svg>
