<svg width="22" height="21" viewBox="0 0 22 21" fill="none" xmlns="http://www.w3.org/2000/svg">
<path d="M11 1.00586C10.2729 1.00616 9.55315 1.15034 8.88208 1.43009C8.21101 1.70984 7.60193 2.11964 7.08997 2.63586C6.04985 3.6798 5.46404 5.09222 5.45996 6.56586C5.45996 10.3559 10.46 15.9459 10.63 16.1759C10.6799 16.2246 10.7373 16.2651 10.8 16.2959C10.8692 16.3101 10.9407 16.3101 11.01 16.2959C11.0758 16.3109 11.1441 16.3109 11.21 16.2959C11.2756 16.2704 11.334 16.2292 11.38 16.1759C11.59 15.9459 16.54 10.3559 16.54 6.56586C16.5396 5.09343 15.9573 3.68081 14.92 2.63586C14.4062 2.11934 13.7953 1.70943 13.1226 1.4297C12.4499 1.14998 11.7285 1.00593 11 1.00586V1.00586Z" stroke="#4A4D4F" stroke-width="1.5" stroke-linecap="round" stroke-linejoin="round"/>
<path d="M11 1.00586C10.2729 1.00616 9.55315 1.15034 8.88208 1.43009C8.21101 1.70984 7.60193 2.11964 7.08997 2.63586C6.04985 3.6798 5.46404 5.09222 5.45996 6.56586C5.45996 10.3559 10.46 15.9459 10.63 16.1759C10.6799 16.2246 10.7373 16.2651 10.8 16.2959C10.8692 16.3101 10.9407 16.3101 11.01 16.2959C11.0758 16.3109 11.1441 16.3109 11.21 16.2959C11.2756 16.2704 11.334 16.2292 11.38 16.1759C11.59 15.9459 16.54 10.3559 16.54 6.56586C16.5396 5.09343 15.9573 3.68081 14.92 2.63586C14.4062 2.11934 13.7953 1.70943 13.1226 1.4297C12.4499 1.14998 11.7285 1.00593 11 1.00586V1.00586Z" stroke="black" stroke-opacity="0.2" stroke-width="1.5" stroke-linecap="round" stroke-linejoin="round"/>
<path d="M11.2904 8.50549C11.8016 8.41381 12.257 8.12692 12.5604 7.70549C12.7138 7.49985 12.8246 7.2657 12.8864 7.01673C12.9482 6.76777 12.9598 6.50897 12.9204 6.25549C12.8793 6.00205 12.7883 5.7593 12.6527 5.54129C12.5171 5.32329 12.3396 5.13437 12.1304 4.98549C11.7132 4.67916 11.1934 4.54654 10.6804 4.61549C10.1693 4.70716 9.71383 4.99406 9.41041 5.41549C9.10506 5.83679 8.9759 6.36052 9.05039 6.87549C9.14448 7.38298 9.43115 7.83445 9.85041 8.13549C10.265 8.43928 10.7807 8.57178 11.2904 8.50549V8.50549Z" stroke="#4A4D4F" stroke-width="1.5" stroke-linecap="round" stroke-linejoin="round"/>
<path d="M11.2904 8.50549C11.8016 8.41381 12.257 8.12692 12.5604 7.70549C12.7138 7.49985 12.8246 7.2657 12.8864 7.01673C12.9482 6.76777 12.9598 6.50897 12.9204 6.25549C12.8793 6.00205 12.7883 5.7593 12.6527 5.54129C12.5171 5.32329 12.3396 5.13437 12.1304 4.98549C11.7132 4.67916 11.1934 4.54654 10.6804 4.61549C10.1693 4.70716 9.71383 4.99406 9.41041 5.41549C9.10506 5.83679 8.9759 6.36052 9.05039 6.87549C9.14448 7.38298 9.43115 7.83445 9.85041 8.13549C10.265 8.43928 10.7807 8.57178 11.2904 8.50549V8.50549Z" stroke="black" stroke-opacity="0.2" stroke-width="1.5" stroke-linecap="round" stroke-linejoin="round"/>
<path d="M14.5102 11.9562H17.4402C17.6634 11.9518 17.8817 12.0222 18.0602 12.1562C18.2425 12.2855 18.3763 12.4721 18.4402 12.6863L20.1902 18.1362C20.2559 18.2942 20.28 18.4663 20.2602 18.6362C20.2367 18.8031 20.1713 18.9614 20.0702 19.0963C19.9725 19.2332 19.8418 19.3432 19.6902 19.4162C19.5331 19.4856 19.3617 19.5164 19.1902 19.5062H2.7802C2.61606 19.5054 2.45464 19.4642 2.3102 19.3862C2.16173 19.3173 2.03411 19.2103 1.94021 19.0762C1.84065 18.9443 1.77536 18.7897 1.7502 18.6263C1.70957 18.4654 1.70957 18.2971 1.7502 18.1362L3.5002 12.6863C3.57203 12.4761 3.70421 12.2917 3.88021 12.1562C4.06106 12.0268 4.27777 11.9569 4.5002 11.9562H7.5002" stroke="#4A4D4F" stroke-width="1.5" stroke-linecap="round" stroke-linejoin="round"/>
<path d="M14.5102 11.9562H17.4402C17.6634 11.9518 17.8817 12.0222 18.0602 12.1562C18.2425 12.2855 18.3763 12.4721 18.4402 12.6863L20.1902 18.1362C20.2559 18.2942 20.28 18.4663 20.2602 18.6362C20.2367 18.8031 20.1713 18.9614 20.0702 19.0963C19.9725 19.2332 19.8418 19.3432 19.6902 19.4162C19.5331 19.4856 19.3617 19.5164 19.1902 19.5062H2.7802C2.61606 19.5054 2.45464 19.4642 2.3102 19.3862C2.16173 19.3173 2.03411 19.2103 1.94021 19.0762C1.84065 18.9443 1.77536 18.7897 1.7502 18.6263C1.70957 18.4654 1.70957 18.2971 1.7502 18.1362L3.5002 12.6863C3.57203 12.4761 3.70421 12.2917 3.88021 12.1562C4.06106 12.0268 4.27777 11.9569 4.5002 11.9562H7.5002" stroke="black" stroke-opacity="0.2" stroke-width="1.5" stroke-linecap="round" stroke-linejoin="round"/>
</svg>
