<svg width="20" height="21" viewBox="0 0 20 21" fill="none" xmlns="http://www.w3.org/2000/svg">
<path d="M9.53994 10.7158C13.4199 14.5958 14.3099 10.1058 16.7799 12.5758C19.1599 14.9558 20.53 15.4358 17.51 18.4558C17.13 18.7558 14.7299 22.4158 6.27995 13.9758C-2.17005 5.52581 1.48994 3.12581 1.78994 2.74581C4.81994 -0.284188 5.28995 1.09581 7.66995 3.47581C10.1499 5.94581 5.65994 6.83581 9.53994 10.7158Z" stroke="#4A4D4F" stroke-width="1.5" stroke-linecap="round" stroke-linejoin="round"/>
<path d="M9.53994 10.7158C13.4199 14.5958 14.3099 10.1058 16.7799 12.5758C19.1599 14.9558 20.53 15.4358 17.51 18.4558C17.13 18.7558 14.7299 22.4158 6.27995 13.9758C-2.17005 5.52581 1.48994 3.12581 1.78994 2.74581C4.81994 -0.284188 5.28995 1.09581 7.66995 3.47581C10.1499 5.94581 5.65994 6.83581 9.53994 10.7158Z" stroke="black" stroke-opacity="0.2" stroke-width="1.5" stroke-linecap="round" stroke-linejoin="round"/>
</svg>
