<svg width="24" height="24" viewBox="0 0 24 24" fill="none" xmlns="http://www.w3.org/2000/svg">
<path d="M11.5702 5.99001C12.4649 5.99001 13.1902 5.2647 13.1902 4.37C13.1902 3.47529 12.4649 2.75 11.5702 2.75C10.6755 2.75 9.9502 3.47529 9.9502 4.37C9.9502 5.2647 10.6755 5.99001 11.5702 5.99001Z" stroke="#F7F7F7" stroke-width="1.5" stroke-linecap="round" stroke-linejoin="round"/>
<path d="M4.14015 12.0799C4.56015 11.3899 5.13014 10.7999 5.85014 10.3599C6.62014 9.8899 7.50013 9.6299 8.40013 9.4899C9.86013 9.2799 11.3301 9.3299 12.8001 9.3899C12.8701 9.3899 12.9301 9.39989 13.0001 9.39989C13.3801 9.44989 13.6901 9.3699 14.0301 9.1399C15.0301 8.4799 16.1702 8.2399 17.3902 8.2999C17.6602 8.3099 17.8301 8.39989 17.9101 8.53989C18.0001 8.71989 17.8901 8.9399 17.8401 9.0499C17.6401 9.4699 17.4001 10.0499 17.1001 10.8399C17.2501 11.0499 17.4601 11.3299 17.7301 11.6499C17.8301 11.7699 18.2201 12.2299 18.5601 12.5399C18.8801 12.8299 19.5201 13.3299 20.6301 13.6899C20.6201 14.6499 20.6101 15.5999 20.6001 16.5599C20.3501 16.6199 19.9801 16.7399 19.5901 16.9799C18.8101 17.4699 18.6601 18.0399 18.0601 18.5599C17.7201 18.8599 17.1501 19.2099 16.2201 19.3499C16.0501 19.5399 15.8301 19.8199 15.6501 20.1899C15.4601 20.5999 15.3801 20.9599 15.3401 21.2199C14.4601 21.2199 13.5901 21.2199 12.7101 21.2199C12.6301 21.0799 12.5501 20.9299 12.4701 20.7699C12.4001 20.6299 12.3301 20.4899 12.2801 20.3499C11.2601 20.3499 10.2401 20.3499 9.22014 20.3499C9.16014 20.4599 9.10014 20.5799 9.03014 20.7099C8.94014 20.8899 8.87013 21.0699 8.81013 21.2299C7.93013 21.2199 7.06013 21.2199 6.18013 21.2099C6.13013 21.1399 6.05015 21.0299 5.98015 20.8799C5.77015 20.4599 5.81013 20.1299 5.71013 19.8699C5.56013 19.4999 5.39014 19.1299 5.13014 18.8199C4.17014 17.6599 3.38012 16.3199 3.36012 14.8299C3.35012 13.8999 3.63015 12.9199 4.14015 12.0799Z" stroke="#F7F7F7" stroke-width="1.5" stroke-linecap="round" stroke-linejoin="round"/>
<path d="M9.93018 12.4902H13.2202" stroke="#F7F7F7" stroke-width="1.5" stroke-linecap="round" stroke-linejoin="round"/>
<path d="M15.9802 13.8397C16.433 13.8397 16.8001 13.4771 16.8001 13.0297C16.8001 12.5824 16.433 12.2197 15.9802 12.2197C15.5273 12.2197 15.1602 12.5824 15.1602 13.0297C15.1602 13.4771 15.5273 13.8397 15.9802 13.8397Z" fill="#F7F7F7"/>
</svg>
