<svg width="24" height="25" viewBox="0 0 24 25" fill="none" xmlns="http://www.w3.org/2000/svg">
<path d="M11.5702 6.67311C12.4649 6.67311 13.1902 5.9478 13.1902 5.0531C13.1902 4.1584 12.4649 3.43311 11.5702 3.43311C10.6755 3.43311 9.9502 4.1584 9.9502 5.0531C9.9502 5.9478 10.6755 6.67311 11.5702 6.67311Z" stroke="#262727" stroke-width="1.5" stroke-linecap="round" stroke-linejoin="round"/>
<path d="M4.14015 12.763C4.56015 12.073 5.13014 11.483 5.85014 11.043C6.62014 10.573 7.50013 10.313 8.40013 10.173C9.86013 9.96301 11.3301 10.013 12.8001 10.073C12.8701 10.073 12.9301 10.083 13.0001 10.083C13.3801 10.133 13.6901 10.053 14.0301 9.823C15.0301 9.163 16.1702 8.923 17.3902 8.983C17.6602 8.993 17.8301 9.08299 17.9101 9.22299C18.0001 9.40299 17.8901 9.623 17.8401 9.733C17.6401 10.153 17.4001 10.733 17.1001 11.523C17.2501 11.733 17.4601 12.013 17.7301 12.333C17.8301 12.453 18.2201 12.913 18.5601 13.223C18.8801 13.513 19.5201 14.013 20.6301 14.373C20.6201 15.333 20.6101 16.283 20.6001 17.243C20.3501 17.303 19.9801 17.423 19.5901 17.663C18.8101 18.153 18.6601 18.723 18.0601 19.243C17.7201 19.543 17.1501 19.893 16.2201 20.033C16.0501 20.223 15.8301 20.503 15.6501 20.873C15.4601 21.283 15.3801 21.643 15.3401 21.903C14.4601 21.903 13.5901 21.903 12.7101 21.903C12.6301 21.763 12.5501 21.613 12.4701 21.453C12.4001 21.313 12.3301 21.173 12.2801 21.033C11.2601 21.033 10.2401 21.033 9.22014 21.033C9.16014 21.143 9.10014 21.263 9.03014 21.393C8.94014 21.573 8.87013 21.753 8.81013 21.913C7.93013 21.903 7.06013 21.903 6.18013 21.893C6.13013 21.823 6.05015 21.713 5.98015 21.563C5.77015 21.143 5.81013 20.813 5.71013 20.553C5.56013 20.183 5.39014 19.813 5.13014 19.503C4.17014 18.343 3.38012 17.003 3.36012 15.513C3.35012 14.583 3.63015 13.603 4.14015 12.763Z" stroke="#262727" stroke-width="1.5" stroke-linecap="round" stroke-linejoin="round"/>
<path d="M9.93018 13.1733H13.2202" stroke="#262727" stroke-width="1.5" stroke-linecap="round" stroke-linejoin="round"/>
<path d="M15.9802 14.5233C16.433 14.5233 16.8001 14.1607 16.8001 13.7133C16.8001 13.266 16.433 12.9033 15.9802 12.9033C15.5273 12.9033 15.1602 13.266 15.1602 13.7133C15.1602 14.1607 15.5273 14.5233 15.9802 14.5233Z" fill="#262727"/>
</svg>
