<svg width="158" height="48" viewBox="0 0 158 48" fill="none" xmlns="http://www.w3.org/2000/svg">
<path d="M0 24C0 10.7452 10.7452 0 24 0H133.92C147.174 0 157.92 10.7452 157.92 24C157.92 37.2548 147.174 48 133.92 48H24C10.7452 48 0 37.2548 0 24Z" fill="white" fill-opacity="0.3"/>
<path d="M91.2461 17.7427H94.0264V27.8442H100.322V30.3696H91.252V17.7427H91.2461Z" fill="#ED1C24"/>
<path d="M101.65 25.5856V25.5501C101.65 22.7876 103.618 20.5171 106.428 20.5171C109.659 20.5171 111.135 23.0247 111.135 25.7635C111.135 25.9828 111.117 26.214 111.099 26.4867H104.371C104.644 27.7316 105.509 28.3778 106.736 28.3778C107.655 28.3778 108.307 28.0873 109.084 27.3878L110.655 28.775C109.736 29.9132 108.455 30.5771 106.707 30.5771C103.802 30.5771 101.656 28.5378 101.656 25.5797L101.65 25.5856ZM108.467 24.7735C108.307 23.5464 107.584 22.7164 106.428 22.7164C105.272 22.7164 104.555 23.5286 104.335 24.7735H108.467Z" fill="#ED1C24"/>
<path d="M112.599 27.5894V27.5539C112.599 25.4612 114.206 24.4712 116.494 24.4712C117.484 24.4712 118.154 24.6313 118.859 24.8684V24.7084C118.859 23.5524 118.154 22.9418 116.784 22.9418C115.723 22.9418 115 23.1196 114.117 23.4634L113.429 21.3708C114.49 20.9203 115.539 20.5942 117.182 20.5942C118.699 20.5942 119.743 20.9736 120.448 21.6791C121.171 22.4023 121.491 23.4634 121.491 24.7617V30.3697H118.841V29.3264C118.172 30.0674 117.27 30.5535 115.919 30.5535C114.099 30.5535 112.599 29.5279 112.599 27.5953V27.5894ZM118.895 26.961V26.4749C118.409 26.2556 117.81 26.1133 117.146 26.1133C115.972 26.1133 115.255 26.5816 115.255 27.4471V27.4827C115.255 28.2237 115.866 28.6565 116.755 28.6565C118.053 28.6565 118.901 27.9688 118.901 26.961H118.895Z" fill="#ED1C24"/>
<path d="M123.092 29.0892L124.266 27.287C125.327 28.0636 126.394 28.443 127.313 28.443C128.107 28.443 128.469 28.1525 128.469 27.7198V27.6842C128.469 27.0914 127.532 26.9076 126.465 26.5638C125.113 26.1844 123.578 25.5382 123.578 23.659V23.6234C123.578 21.6553 125.167 20.5586 127.111 20.5586C128.338 20.5586 129.654 20.9736 130.715 21.679L129.672 23.5701C128.718 23.0128 127.763 22.669 127.058 22.669C126.394 22.669 126.05 22.9595 126.05 23.3389V23.3745C126.05 23.8783 126.969 24.2044 128.018 24.5304C129.37 24.9632 130.941 25.6331 130.941 27.3996V27.4352C130.941 29.5812 129.334 30.5534 127.241 30.5534C125.872 30.5534 124.39 30.1029 123.092 29.0951V29.0892Z" fill="#ED1C24"/>
<path d="M132.435 25.5856V25.5501C132.435 22.7876 134.403 20.5171 137.213 20.5171C140.443 20.5171 141.92 23.0247 141.92 25.7635C141.92 25.9828 141.902 26.214 141.884 26.4867H135.156C135.428 27.7316 136.294 28.3778 137.521 28.3778C138.44 28.3778 139.092 28.0873 139.868 27.3878L141.439 28.775C140.521 29.9132 139.24 30.5771 137.491 30.5771C134.586 30.5771 132.44 28.5378 132.44 25.5797L132.435 25.5856ZM139.252 24.7735C139.092 23.5464 138.369 22.7164 137.213 22.7164C136.057 22.7164 135.339 23.5286 135.12 24.7735H139.252Z" fill="#ED1C24"/>
<path d="M65.1916 17.6006H57.6747C55.422 17.6006 53.5962 19.4264 53.5962 21.6791V26.3209C53.5962 28.5735 55.422 30.3994 57.6747 30.3994H65.1916C67.4443 30.3994 69.2701 28.5735 69.2701 26.3209V21.6791C69.2701 19.4264 67.4443 17.6006 65.1916 17.6006ZM66.1045 26.1371C66.1045 26.8188 65.5532 27.3642 64.8774 27.3642H57.9949C57.3131 27.3642 56.7677 26.8129 56.7677 26.1371V21.857C56.7677 21.1752 57.319 20.6299 57.9949 20.6299H64.8774C65.5591 20.6299 66.1045 21.1812 66.1045 21.857V26.1371Z" fill="#ED1C24"/>
<path d="M51.3618 22.2482V21.7443C51.3618 19.4561 49.5063 17.6006 47.218 17.6006H36.2332C36.1028 17.6006 35.9961 17.7073 35.9961 17.8377V30.1623C35.9961 30.2927 36.1028 30.3994 36.2332 30.3994H38.9542C39.0846 30.3994 39.1973 30.2927 39.1973 30.1623V26.392H43.6019L47.4966 30.2868C47.5737 30.3638 47.6745 30.4053 47.7812 30.4053H51.3084C51.4151 30.4053 51.4685 30.2749 51.3914 30.1978L47.5678 26.3742C49.69 26.1964 51.3558 24.4179 51.3558 22.2482M39.1973 20.6299H46.8683C47.6033 20.6299 48.1962 21.2227 48.1962 21.9578V22.0348C48.1962 22.7699 47.6033 23.3627 46.8683 23.3627H39.1973V20.6358V20.6299Z" fill="#ED1C24"/>
<path d="M86.4976 17.6006H82.5673C82.4606 17.6006 82.3598 17.6421 82.2827 17.7191L78.1923 21.8096L74.1019 17.7191C74.0249 17.6421 73.9241 17.6006 73.8174 17.6006H69.887C69.7803 17.6006 69.727 17.731 69.804 17.8081L75.9989 24.003L69.804 30.1978C69.727 30.2749 69.7803 30.4053 69.887 30.4053H73.8174C73.9241 30.4053 74.0249 30.3638 74.1019 30.2868L78.1923 26.1964L82.2827 30.2868C82.3598 30.3638 82.4606 30.4053 82.5673 30.4053H86.4976C86.6043 30.4053 86.6577 30.2749 86.5806 30.1978L80.3857 24.003L86.5806 17.8081C86.6577 17.731 86.6043 17.6006 86.4976 17.6006Z" fill="#ED1C24"/>
<path d="M25.1826 20.7543L23.997 19.3434L21.5605 16.4386C21.3352 16.16 20.9973 16.0059 20.6416 16.0059H17.6064L21.6435 20.8136C22.0585 21.3115 22.675 21.5961 23.3271 21.5961H24.6787C25.3308 21.5961 25.9473 21.3115 26.3623 20.8136C26.0303 21.1278 25.4968 21.11 25.1944 20.7484L25.1826 20.7543Z" fill="url(#paint0_linear_8371_1733)"/>
<path d="M30.3934 16.0059H27.3582C27.0026 16.0059 26.6647 16.1601 26.4394 16.4328L24.0029 19.3375L25.1886 20.7484C25.5087 21.1278 26.0956 21.1278 26.4157 20.7484L30.3994 16L30.3934 16.0059Z" fill="url(#paint1_linear_8371_1733)"/>
<path d="M27.2457 25.1826L28.6566 23.997L31.5613 21.5605C31.834 21.3352 31.9882 20.9973 31.9882 20.6416V17.6064L27.1805 21.6435C26.6825 22.0585 26.3979 22.675 26.3979 23.3271V24.6787C26.3979 25.3308 26.6825 25.9473 27.1805 26.3623C26.8603 26.0303 26.8841 25.4908 27.2397 25.1885L27.2457 25.1826Z" fill="url(#paint2_linear_8371_1733)"/>
<path d="M31.9943 30.3934V27.3582C31.9943 27.0026 31.8402 26.6647 31.5675 26.4394L28.6627 24.0029L27.2518 25.1886C26.8724 25.5087 26.8724 26.0956 27.2518 26.4157L32.0003 30.3994L31.9943 30.3934Z" fill="url(#paint3_linear_8371_1733)"/>
<path d="M20.7484 22.8174L19.3375 24.003L16.4327 26.4395C16.16 26.6647 16.0059 27.0026 16.0059 27.3583V30.3935L20.8136 26.3565C21.3115 25.9415 21.5961 25.325 21.5961 24.6729V23.3213C21.5961 22.6692 21.3115 22.0527 20.8136 21.6377C21.1337 21.9697 21.11 22.5091 20.7543 22.8115L20.7484 22.8174Z" fill="url(#paint4_linear_8371_1733)"/>
<path d="M16.0059 17.6065V20.6417C16.0059 20.9974 16.1601 21.3353 16.4328 21.5606L19.3375 23.997L20.7484 22.8114C21.1278 22.4913 21.1278 21.9044 20.7484 21.5843L16 17.6006L16.0059 17.6065Z" fill="url(#paint5_linear_8371_1733)"/>
<path d="M22.812 27.2457L23.9976 28.6566L26.4341 31.5613C26.6594 31.834 26.9973 31.9882 27.353 31.9882H30.3881L26.3511 27.1805C25.9361 26.6825 25.3196 26.3979 24.6675 26.3979H23.3159C22.6638 26.3979 22.0473 26.6825 21.6323 27.1805C21.9643 26.8663 22.4978 26.8841 22.8002 27.2457H22.812Z" fill="url(#paint6_linear_8371_1733)"/>
<path d="M17.607 31.9943H20.6422C20.9979 31.9943 21.3358 31.8402 21.5611 31.5675L23.9975 28.6627L22.8119 27.2518C22.4918 26.8724 21.9049 26.8724 21.5848 27.2518L17.6011 32.0003L17.607 31.9943Z" fill="url(#paint7_linear_8371_1733)"/>
<defs>
<linearGradient id="paint0_linear_8371_1733" x1="24.6668" y1="21.6079" x2="18.7387" y2="14.5475" gradientUnits="userSpaceOnUse">
<stop stop-color="#FDB913"/>
<stop offset="0.97" stop-color="#F15A22"/>
</linearGradient>
<linearGradient id="paint1_linear_8371_1733" x1="28.7099" y1="15.8696" x2="24.2934" y2="21.1337" gradientUnits="userSpaceOnUse">
<stop stop-color="#FDB913"/>
<stop offset="1" stop-color="#F15A22"/>
</linearGradient>
<linearGradient id="paint2_linear_8371_1733" x1="26.3861" y1="24.6609" x2="33.4524" y2="18.7387" gradientUnits="userSpaceOnUse">
<stop stop-color="#FDB913"/>
<stop offset="0.97" stop-color="#F15A22"/>
</linearGradient>
<linearGradient id="paint3_linear_8371_1733" x1="32.1247" y1="28.7099" x2="26.8665" y2="24.2934" gradientUnits="userSpaceOnUse">
<stop stop-color="#FDB913"/>
<stop offset="1" stop-color="#F15A22"/>
</linearGradient>
<linearGradient id="paint4_linear_8371_1733" x1="21.6079" y1="23.3331" x2="14.5475" y2="29.2553" gradientUnits="userSpaceOnUse">
<stop stop-color="#FDB913"/>
<stop offset="0.97" stop-color="#F15A22"/>
</linearGradient>
<linearGradient id="paint5_linear_8371_1733" x1="15.8696" y1="19.2842" x2="21.1338" y2="23.7006" gradientUnits="userSpaceOnUse">
<stop stop-color="#FDB913"/>
<stop offset="1" stop-color="#F15A22"/>
</linearGradient>
<linearGradient id="paint6_linear_8371_1733" x1="23.3337" y1="26.392" x2="29.2618" y2="33.4524" gradientUnits="userSpaceOnUse">
<stop stop-color="#FDB913"/>
<stop offset="0.97" stop-color="#F15A22"/>
</linearGradient>
<linearGradient id="paint7_linear_8371_1733" x1="19.2906" y1="32.1307" x2="23.707" y2="26.8665" gradientUnits="userSpaceOnUse">
<stop stop-color="#FDB913"/>
<stop offset="1" stop-color="#F15A22"/>
</linearGradient>
</defs>
</svg>
