<svg width="25" height="25" viewBox="0 0 25 25" fill="none" xmlns="http://www.w3.org/2000/svg">
<path d="M12.2859 12.8882C13.6501 12.8882 14.7559 11.7824 14.7559 10.4182C14.7559 9.0541 13.6501 7.94824 12.2859 7.94824C10.9218 7.94824 9.81592 9.0541 9.81592 10.4182C9.81592 11.7824 10.9218 12.8882 12.2859 12.8882Z" stroke="#D9D9D9" stroke-width="1.5" stroke-linecap="round" stroke-linejoin="round"/>
<path d="M7.30591 19.7181V18.3081C7.30591 16.6681 8.6359 15.3481 10.2659 15.3481H14.6959C16.3359 15.3481 17.6559 16.6781 17.6559 18.3081V19.7181" stroke="#D9D9D9" stroke-width="1.5" stroke-linecap="round" stroke-linejoin="round"/>
<path d="M12.4856 21.6782C17.5942 21.6782 21.7356 17.5369 21.7356 12.4282C21.7356 7.31959 17.5942 3.17822 12.4856 3.17822C7.37696 3.17822 3.2356 7.31959 3.2356 12.4282C3.2356 17.5369 7.37696 21.6782 12.4856 21.6782Z" stroke="#D9D9D9" stroke-width="1.5" stroke-linecap="round" stroke-linejoin="round"/>
</svg>
