<svg width="21" height="22" viewBox="0 0 21 22" fill="none" xmlns="http://www.w3.org/2000/svg">
<path d="M20.2001 10.9999C20.2001 16.365 15.8508 20.7142 10.4858 20.7142M20.2001 10.9999C20.2001 5.63488 15.8508 1.28564 10.4858 1.28564M20.2001 10.9999H0.771484M10.4858 20.7142C5.12072 20.7142 0.771484 16.365 0.771484 10.9999M10.4858 20.7142C12.9156 18.0541 14.2964 14.602 14.3715 10.9999C14.2964 7.39791 12.9156 3.94576 10.4858 1.28564M10.4858 20.7142C8.05596 18.0541 6.6751 14.602 6.60006 10.9999C6.6751 7.39791 8.05596 3.94576 10.4858 1.28564M0.771484 10.9999C0.771484 5.63488 5.12072 1.28564 10.4858 1.28564" stroke="#D9D9D9" stroke-width="1.45714" stroke-linecap="round" stroke-linejoin="round"/>
</svg>
