<svg width="32" height="23" viewBox="0 0 32 23" fill="none" xmlns="http://www.w3.org/2000/svg">
<path fill-rule="evenodd" clip-rule="evenodd" d="M28.4673 0.836969C29.8434 1.20667 30.932 2.29526 31.3017 3.67137C31.9795 6.17715 32 11.3736 32 11.3736C32 11.3736 32 16.5905 31.3222 19.0757C30.9525 20.4519 29.8639 21.5404 28.4878 21.9101C26.0026 22.5879 16 22.5879 16 22.5879C16 22.5879 5.99743 22.5879 3.5122 21.9101C2.13607 21.5404 1.0475 20.4519 0.677793 19.0757C0 16.57 0 11.3736 0 11.3736C0 11.3736 0 6.17715 0.657252 3.69192C1.02696 2.31579 2.11553 1.22722 3.49166 0.857516C5.97689 0.179714 15.9795 0.15918 15.9795 0.15918C15.9795 0.15918 25.982 0.15918 28.4673 0.836969ZM21.0937 11.3736L12.7959 16.1797V6.5674L21.0937 11.3736Z" fill="#636669"/>
</svg>
